<?xml version="1.0" encoding="UTF-8"?>
<svg version="1.1" xmlns="http://www.w3.org/2000/svg" width="274" height="273">
<path d="M0 0 C90.42 0 180.84 0 274 0 C274 90.09 274 180.18 274 273 C183.58 273 93.16 273 0 273 C0 182.91 0 92.82 0 0 Z " fill="#FCFCFC" transform="translate(0,0)"/>
<path d="M0 0 C90.42 0 180.84 0 274 0 C274 90.09 274 180.18 274 273 C183.58 273 93.16 273 0 273 C0 182.91 0 92.82 0 0 Z M53 34 C52.11828125 34.74121094 51.2365625 35.48242188 50.328125 36.24609375 C28.95816117 54.86185417 15.63293293 77.97691127 8 105 C7.80647949 105.67289062 7.61295898 106.34578125 7.41357422 107.0390625 C-1.2810145 138.79465683 6.65927388 174.65902162 22.46484375 202.7578125 C28.62399413 213.27434589 36.56819205 222.25957122 45 231 C45.53641113 231.56340088 46.07282227 232.12680176 46.62548828 232.70727539 C63.64034551 250.22285145 86.6455867 260.1545679 110 266 C111.01449219 266.26554687 112.02898437 266.53109375 113.07421875 266.8046875 C145.44957118 273.70512758 181.71947522 264.40234188 209.1965332 246.97583008 C215.95236479 242.52955604 222.03590718 237.4475814 228 232 C228.79792969 231.28457031 229.59585938 230.56914062 230.41796875 229.83203125 C253.04101213 208.49029298 267.32409952 175.87846641 269 145 C270.01639203 105.318361 258.4206305 72.10256508 231 43 C230.17628906 42.09701172 230.17628906 42.09701172 229.3359375 41.17578125 C216.73336163 27.85926636 200.08724163 18.28951236 183 12 C181.86433594 11.56945312 180.72867188 11.13890625 179.55859375 10.6953125 C136.5924542 -4.70506414 87.73428719 4.69874971 53 34 Z " fill="#FDFDFD" transform="translate(0,0)"/>
<path d="M0 0 C2.625 0.0625 2.625 0.0625 6 1 C7.20703125 2.625 7.20703125 2.625 8.4375 4.5625 C10.68672065 7.45777338 11.79031704 7.95938573 15.46875 8.671875 C23.96976081 9.03938536 23.96976081 9.03938536 31.1875 5.125 C31.65542969 4.59132813 32.12335938 4.05765625 32.60546875 3.5078125 C34.26904145 1.70910364 35.71905128 0.87897831 38 0 C41.25 0.375 41.25 0.375 44 1 C44.125 6.75 44.125 6.75 43 9 C42.74965983 14.09025008 42.95698144 17.31307507 45 22 C45.3813074 24.32597511 45.72460254 26.65912158 46 29 C46.639375 28.814375 47.27875 28.62875 47.9375 28.4375 C48.618125 28.293125 49.29875 28.14875 50 28 C50.33 28.33 50.66 28.66 51 29 C52.98 26.03 54.96 23.06 57 20 C61 21 61 21 62 22 C61.57579749 25.74712219 60.94957457 29.35459932 60 33 C60.84678051 31.13103445 61.67686211 29.25449819 62.5 27.375 C62.9640625 26.33085938 63.428125 25.28671875 63.90625 24.2109375 C65.03787805 20.88880085 65.27924422 18.4805797 65 15 C64.505 14.01 64.505 14.01 64 13 C63.54306437 7.63100635 63.54306437 7.63100635 65.3125 5.1875 C69.20973067 2.44500434 73.43896696 2.76793178 78 3 C79.67343448 3.29749946 81.34305915 3.62127066 83 4 C83.99 4 84.98 4 86 4 C86.33 3.01 86.66 2.02 87 1 C89.86608129 -0.43304064 91.81300783 -0.30644155 95 0 C98.0603333 1.7655769 100.50587755 3.50587755 103 6 C102.6442194 9.37991574 101.64284201 12.04288438 100 15 C101.65 16.32 103.3 17.64 105 19 C105.99 17.02 106.98 15.04 108 13 C109.65 13 111.3 13 113 13 C112.34 13.845625 111.68 14.69125 111 15.5625 C108.74727595 19.43436947 108.64822304 21.60278797 109 26 C111.07553648 26.5534764 112.84365964 27 115 27 C115.268125 26.29875 115.53625 25.5975 115.8125 24.875 C119.8630137 15.06849315 119.8630137 15.06849315 124 13 C127.03758694 13.07593967 128.71075287 13.82801522 131.3125 15.375 C134.00724425 19.5668244 133.48957954 24.14433404 133 29 C132 30 132 30 128.9375 30.0625 C127.968125 30.041875 126.99875 30.02125 126 30 C126.66 29.505 127.32 29.01 128 28.5 C130.8827217 24.89659788 130.30200997 22.53014958 130 18 C127.69 17.67 125.38 17.34 123 17 C122.62875 18.299375 122.62875 18.299375 122.25 19.625 C120.81906411 23.4885269 118.94650436 27.05349564 116 30 C113.125 30.25 113.125 30.25 110 30 C108.3046875 28.484375 108.3046875 28.484375 107 27 C106.58041016 27.81404297 106.58041016 27.81404297 106.15234375 28.64453125 C103.9564461 32.56325535 102.52766777 34.6929933 98.5625 37 C95.16127754 37.95472911 92.50716461 38.2566218 89 38 C88.67 40.64 88.34 43.28 88 46 C88.7425 46.0825 89.485 46.165 90.25 46.25 C93.71015935 47.19367982 94.95374685 48.044301 97 51 C97.47429537 55.98010142 97.26881984 59.46236032 95 64 C96.03060547 64.18175781 96.03060547 64.18175781 97.08203125 64.3671875 C97.98308594 64.53476563 98.88414062 64.70234375 99.8125 64.875 C100.70582031 65.03742188 101.59914062 65.19984375 102.51953125 65.3671875 C105 66 105 66 108 68 C108 69.32 108 70.64 108 72 C105.01044497 73.49477752 101.95768503 73.02167063 98.6875 72.9375 C93.8317268 72.81860252 90.41753982 72.98635111 86 75 C83.03044666 75.18180939 80.61843416 75.17178727 77.75 74.375 C76.88375 74.189375 76.88375 74.189375 76 74 C75.34 74.66 74.68 75.32 74 76 C70.74191388 76.18441997 67.79006791 76.16518438 64.58984375 75.49609375 C57.40478644 74.11977055 49.91908964 75.05248035 42.69921875 75.7734375 C35.98747011 76.33679701 29.6509882 76.03204989 23 75 C21.51886719 74.92652344 21.51886719 74.92652344 20.0078125 74.8515625 C18.93273437 74.79742187 17.85765625 74.74328125 16.75 74.6875 C15.22632812 74.63142578 15.22632812 74.63142578 13.671875 74.57421875 C11 74 11 74 9.203125 72.33203125 C4.47168084 63.16101773 6.30912491 49.5862425 9 40 C3.38963576 38.37922811 -0.46245077 37.44420805 -6 40 C-4.06745228 37.9754262 -2.36841312 36.57894208 0 35 C-1.98 35 -3.96 35 -6 35 C-6 34.34 -6 33.68 -6 33 C-4.68 33 -3.36 33 -2 33 C-2.66 31.35 -3.32 29.7 -4 28 C-4.33 28.66 -4.66 29.32 -5 30 C-5.99 29.67 -6.98 29.34 -8 29 C-9.84610532 28.91760831 -11.69505164 28.89256641 -13.54296875 28.90234375 C-15.15268555 28.90717773 -15.15268555 28.90717773 -16.79492188 28.91210938 C-17.91447266 28.92048828 -19.03402344 28.92886719 -20.1875 28.9375 C-21.88422852 28.94426758 -21.88422852 28.94426758 -23.61523438 28.95117188 C-26.41020927 28.96296502 -29.2050782 28.9794235 -32 29 C-32 27.02 -32 25.04 -32 23 C-31.34 23.33 -30.68 23.66 -30 24 C-28.29636178 24.22622081 -26.58671299 24.40888473 -24.875 24.5625 C-23.26625 24.706875 -21.6575 24.85125 -20 25 C-20 20.71 -20 16.42 -20 12 C-23.96 12 -27.92 12 -32 12 C-32 10.02 -32 8.04 -32 6 C-31.34 6 -30.68 6 -30 6 C-30 6.66 -30 7.32 -30 8 C-22.41 8 -14.82 8 -7 8 C-7.33 6.35 -7.66 4.7 -8 3 C-5.525 3.495 -5.525 3.495 -3 4 C-2.01 2.68 -1.02 1.36 0 0 Z " fill="#D58030" transform="translate(86,100)"/>
<path d="M0 0 C11.24981965 6.53705736 18.14597048 15.52197387 23.4375 27.375 C23.4375 29.375 23.4375 29.375 22.375 30.9375 C19.54708706 33.03562896 16.89058761 33.11921573 13.4375 33.375 C13.1075 33.045 12.7775 32.715 12.4375 32.375 C8.23368128 32.09474542 5.38475676 32.01977871 1.4375 33.5 C-0.88211569 35.27317902 -0.88211569 35.27317902 -0.9375 38.4375 C-0.73603229 41.30322744 -0.73603229 41.30322744 0.4375 43.375 C0.30649318 51.49742275 -2.67118786 57.34207806 -6.5625 64.375 C-6.8925 63.715 -7.2225 63.055 -7.5625 62.375 C-6.81062026 60.64240756 -6.05528013 58.91101774 -5.265625 57.1953125 C-4.36336664 54.85946585 -4.33734948 52.85165577 -4.5625 50.375 C-5.8825 50.045 -7.2025 49.715 -8.5625 49.375 C-9.18125 50.303125 -9.8 51.23125 -10.4375 52.1875 C-12.5 55.28125 -12.5 55.28125 -14.5625 58.375 C-15.490625 58.0965625 -15.490625 58.0965625 -16.4375 57.8125 C-18.60410178 57.13813824 -18.60410178 57.13813824 -20.5625 58.375 C-20.76166016 57.21871094 -20.76166016 57.21871094 -20.96484375 56.0390625 C-21.14144531 55.03617188 -21.31804687 54.03328125 -21.5 53 C-21.67402344 52.00226563 -21.84804687 51.00453125 -22.02734375 49.9765625 C-22.43962062 47.40590344 -22.43962062 47.40590344 -23.5625 45.375 C-23.86190143 39.58657235 -23.1523567 34.93949845 -21.5625 29.375 C-27.20133841 28.5074864 -30.18983752 30.75547233 -34.609375 33.8671875 C-36.64485753 35.37228011 -36.64485753 35.37228011 -38.5625 37.375 C-41.09366486 37.62723659 -43.46826643 37.74523663 -46 37.75 C-47.0219043 37.78673828 -47.0219043 37.78673828 -48.06445312 37.82421875 C-51.25157442 37.84294816 -53.12732775 37.7231378 -55.65234375 35.703125 C-56.5625 33.375 -56.5625 33.375 -56.0078125 30.7109375 C-49.37647484 15.83947612 -40.8611995 4.80929058 -25.5625 -1.625 C-17.42627384 -4.33707539 -7.65968981 -3.71349519 0 0 Z " fill="#DED2BF" transform="translate(151.5625,71.625)"/>
<path d="M0 0 C3.0603333 1.7655769 5.50587755 3.50587755 8 6 C7.6442194 9.37991574 6.64284201 12.04288438 5 15 C7.475 16.98 7.475 16.98 10 19 C10.99 17.02 11.98 15.04 13 13 C14.65 13 16.3 13 18 13 C17.34 13.845625 16.68 14.69125 16 15.5625 C13.74727595 19.43436947 13.64822304 21.60278797 14 26 C16.07553648 26.5534764 17.84365964 27 20 27 C20.268125 26.29875 20.53625 25.5975 20.8125 24.875 C24.8630137 15.06849315 24.8630137 15.06849315 29 13 C32.03758694 13.07593967 33.71075287 13.82801522 36.3125 15.375 C39.00724425 19.5668244 38.48957954 24.14433404 38 29 C37 30 37 30 33.9375 30.0625 C32.968125 30.041875 31.99875 30.02125 31 30 C31.66 29.505 32.32 29.01 33 28.5 C35.8827217 24.89659788 35.30200997 22.53014958 35 18 C32.69 17.67 30.38 17.34 28 17 C27.7525 17.86625 27.505 18.7325 27.25 19.625 C25.81906411 23.4885269 23.94650436 27.05349564 21 30 C18.125 30.25 18.125 30.25 15 30 C13.3046875 28.484375 13.3046875 28.484375 12 27 C11.72027344 27.54269531 11.44054687 28.08539063 11.15234375 28.64453125 C8.9564461 32.56325535 7.52766777 34.6929933 3.5625 37 C0.16127754 37.95472911 -2.49283539 38.2566218 -6 38 C-6.33 40.64 -6.66 43.28 -7 46 C-6.2575 46.0825 -5.515 46.165 -4.75 46.25 C-1.28984065 47.19367982 -0.04625315 48.044301 2 51 C2.47429537 55.98010142 2.26881984 59.46236032 0 64 C0.68707031 64.12117188 1.37414062 64.24234375 2.08203125 64.3671875 C2.98308594 64.53476563 3.88414062 64.70234375 4.8125 64.875 C5.70582031 65.03742188 6.59914062 65.19984375 7.51953125 65.3671875 C10 66 10 66 13 68 C13 69.32 13 70.64 13 72 C10.01044497 73.49477752 6.95768503 73.02167063 3.6875 72.9375 C-1.1682732 72.81860252 -4.58246018 72.98635111 -9 75 C-11.96955334 75.18180939 -14.38156584 75.17178727 -17.25 74.375 C-18.11625 74.189375 -18.11625 74.189375 -19 74 C-19.99 74.99 -19.99 74.99 -21 76 C-24.625 76.125 -24.625 76.125 -28 76 C-28.99 73.03 -28.99 73.03 -30 70 C-30 70.99 -30 71.98 -30 73 C-30.99 73 -31.98 73 -33 73 C-32.75 71.125 -32.75 71.125 -32 69 C-29.9375 67.75 -29.9375 67.75 -28 67 C-28.81880887 64.83647603 -28.81880887 64.83647603 -30.9375 64.125 C-33 63 -33 63 -34.375 61.1875 C-35.23788272 58.16741047 -34.21789979 56.88449951 -33 54 C-32.53202942 51.01102664 -32.24955807 48.01439877 -32 45 C-32.66 45 -33.32 45 -34 45 C-34.66 43.35 -35.32 41.7 -36 40 C-33.36 39.34 -30.72 38.68 -28 38 C-28.34227572 35.02934491 -28.34227572 35.02934491 -29 32 C-29.66 31.67 -30.32 31.34 -31 31 C-30.21824485 26.15311808 -28.60155722 21.6233633 -27 17 C-26.278125 17.103125 -25.55625 17.20625 -24.8125 17.3125 C-20.75729452 16.86192161 -19.51429698 15.12588273 -17 12 C-16.29835358 10.01200182 -15.62627128 8.01301483 -15 6 C-12 4 -12 4 -9 4 C-8.67 3.01 -8.34 2.02 -8 1 C-5.13391871 -0.43304064 -3.18699217 -0.30644155 0 0 Z " fill="#D85853" transform="translate(181,100)"/>
<path d="M0 0 C0.763125 0.804375 1.52625 1.60875 2.3125 2.4375 C6.12993546 6.07738032 8.79109055 6.13767808 13.875 6.125 C14.90367188 6.12757812 15.93234375 6.13015625 16.9921875 6.1328125 C19.774648 6.00995061 22.29239874 5.62944236 25 5 C25 6.65 25 8.3 25 10 C26.32 9.34 27.64 8.68 29 8 C29.66 9.32 30.32 10.64 31 12 C31.99 11.67 32.98 11.34 34 11 C37.35562375 16.76747831 39.10943404 21.20498847 37.5390625 27.9921875 C37.07271483 29.67509431 36.54206279 31.33993271 36 33 C34.35 33 32.7 33 31 33 C31 33.99 31 34.98 31 36 C31.99 36.495 31.99 36.495 33 37 C32.01 37 31.02 37 30 37 C30.5259375 38.1446875 30.5259375 38.1446875 31.0625 39.3125 C32 42 32 42 31 45 C31.99 45.495 31.99 45.495 33 46 C31.35 46.99 29.7 47.98 28 49 C27.01 48.01 26.02 47.02 25 46 C24.01 46.495 24.01 46.495 23 47 C22.74031918 49.36663657 22.5931123 51.74598069 22.5 54.125 C22.28800531 59.47786603 21.62934404 63.94114955 20 69 C18.02 69 16.04 69 14 69 C14 65.7 14 62.4 14 59 C13.01 59 12.02 59 11 59 C10 58 10 58 9.90234375 55.93359375 C9.91394531 55.10988281 9.92554687 54.28617188 9.9375 53.4375 C9.94652344 52.61121094 9.95554687 51.78492188 9.96484375 50.93359375 C9.97644531 50.29550781 9.98804687 49.65742188 10 49 C9.34 49 8.68 49 8 49 C8.144375 49.86882812 8.28875 50.73765625 8.4375 51.6328125 C8.623125 52.78523438 8.80875 53.93765625 9 55.125 C9.185625 56.26195312 9.37125 57.39890625 9.5625 58.5703125 C9.96956049 61.76137602 10.07809902 64.78817791 10 68 C9.34 68 8.68 68 8 68 C8 67.34 8 66.68 8 66 C7.34 66 6.68 66 6 66 C5.67 66.66 5.34 67.32 5 68 C2.76832468 64.65248702 2.69844975 63.31117054 2.55078125 59.37890625 C2.50759766 58.27869141 2.46441406 57.17847656 2.41992188 56.04492188 C2.38447266 54.89572266 2.34902344 53.74652344 2.3125 52.5625 C2.26544922 51.41716797 2.21839844 50.27183594 2.16992188 49.09179688 C1.83786111 39.78865174 1.83786111 39.78865174 3 36 C-2.61036424 34.37922811 -6.46245077 33.44420805 -12 36 C-9.82575883 33.49962266 -8.26954202 32.56371414 -5 32 C-5 31.01 -5 30.02 -5 29 C-5.495 28.5875 -5.99 28.175 -6.5 27.75 C-8 26 -8 26 -8.4375 22.875 C-7.81094326 17.32549749 -6.00852434 12.00852434 -2 8 C-1.01 8 -0.02 8 1 8 C0.67 5.36 0.34 2.72 0 0 Z " fill="#CC7C30" transform="translate(92,104)"/>
<path d="M0 0 C24.90807123 21.2600414 45.01634776 50.7582903 48.31640625 84.20703125 C50.95709571 122.89522756 43.06020631 159.25688861 17.265625 189.234375 C-6.33197316 215.87776796 -38.41838758 232.31074853 -74 235 C-110.48127504 236.90527487 -144.31116511 225.84231006 -171.7890625 201.40917969 C-187.65171232 186.80024826 -199.53861992 169.27095217 -207 149 C-207.43054688 147.86433594 -207.86109375 146.72867188 -208.3046875 145.55859375 C-219.94935885 113.07064971 -217.18416766 77.89706117 -202.96386719 46.72900391 C-198.12067801 36.54321329 -192.26175845 27.60823347 -185 19 C-184.25878906 18.11828125 -183.51757812 17.2365625 -182.75390625 16.328125 C-164.13814583 -5.04183883 -141.02308873 -18.36706707 -114 -26 C-113.32710938 -26.19352051 -112.65421875 -26.38704102 -111.9609375 -26.58642578 C-74.30649379 -36.89610218 -29.50221027 -24.74116392 0 0 Z M-173 9 C-173.88558594 9.80953125 -174.77117187 10.6190625 -175.68359375 11.453125 C-198.165331 32.75496966 -212.05212711 64.1278166 -213.3828125 94.98046875 C-214.31034735 132.93669874 -202.19633652 166.26536393 -176 194 C-175.32582031 194.73863281 -174.65164062 195.47726563 -173.95703125 196.23828125 C-153.33672114 218.01920919 -121.97639743 232.13510164 -91.99414062 233.06201172 C-53.62036198 234.06530196 -19.41494554 222.37149942 8.54858398 195.8347168 C33.32918872 171.74237607 46.57463461 138.58806648 47.16650391 104.17260742 C47.38805087 77.95020609 40.4342336 51.47371632 25 30 C24.28457031 28.989375 23.56914062 27.97875 22.83203125 26.9375 C7.13565202 5.34556728 -12.68884494 -8.46766619 -37 -19 C-38.00289062 -19.45117188 -39.00578125 -19.90234375 -40.0390625 -20.3671875 C-85.36003401 -38.9272044 -138.68502759 -23.4586756 -173 9 Z " fill="#1D1D1D" transform="translate(220,33)"/>
<path d="M0 0 C2.625 0.0625 2.625 0.0625 6 1 C7.20703125 2.625 7.20703125 2.625 8.4375 4.5625 C10.68672065 7.45777338 11.79031704 7.95938573 15.46875 8.671875 C23.96976081 9.03938536 23.96976081 9.03938536 31.1875 5.125 C31.65542969 4.59132813 32.12335938 4.05765625 32.60546875 3.5078125 C34.26904145 1.70910364 35.71905128 0.87897831 38 0 C41.25 0.375 41.25 0.375 44 1 C44.125 6.75 44.125 6.75 43 9 C42.74965983 14.09025008 42.95698144 17.31307507 45 22 C45.3813074 24.32597511 45.72460254 26.65912158 46 29 C46.639375 28.814375 47.27875 28.62875 47.9375 28.4375 C48.618125 28.293125 49.29875 28.14875 50 28 C50.33 28.33 50.66 28.66 51 29 C52.98 26.03 54.96 23.06 57 20 C61 21 61 21 62 22 C61.71269945 24.33944736 61.38063221 26.6739143 61 29 C60 26 60 26 61 23 C58.41515408 23.9804588 57.05156969 24.93922143 55.25 27.0625 C52.55117242 33.40474481 53.84515863 39.67015347 56 46 C55.01 46 54.02 46 53 46 C52.67 46.99 52.34 47.98 52 49 C51.01886757 47.70982586 50.04015801 46.41780894 49.0625 45.125 C48.51722656 44.40570313 47.97195312 43.68640625 47.41015625 42.9453125 C46 41 46 41 45 39 C45.495 38.01 45.495 38.01 46 37 C45.34 36.67 44.68 36.34 44 36 C44 34.68 44 33.36 44 32 C43.01 32.495 43.01 32.495 42 33 C42.33 32.01 42.66 31.02 43 30 C43.43016288 24.40788256 42.7770539 20.78802397 40 16 C37.45224694 15.10613836 37.45224694 15.10613836 35 15 C34.505 14.01 34.505 14.01 34 13 C33.01 13.33 32.02 13.66 31 14 C31 12.35 31 10.7 31 9 C29.948125 9.48533203 29.948125 9.48533203 28.875 9.98046875 C25.74409201 11.09074998 23.31299938 11.29982271 20 11.3125 C18.989375 11.32925781 17.97875 11.34601563 16.9375 11.36328125 C12.62948393 10.83050799 10.0275143 9.0275143 7 6 C7.495 9.465 7.495 9.465 8 13 C6.68 12.67 5.36 12.34 4 12 C3.67 12.99 3.34 13.98 3 15 C2.31764604 16.21124678 1.6296479 17.41932302 0.9375 18.625 C-1.37685574 23.12003028 -1.41351257 27.03784912 -1 32 C0.32 32.33 1.64 32.66 3 33 C2.34 33 1.68 33 1 33 C0.505 33.99 0.505 33.99 0 35 C-1.98 35 -3.96 35 -6 35 C-6 34.34 -6 33.68 -6 33 C-4.68 33 -3.36 33 -2 33 C-2.66 31.35 -3.32 29.7 -4 28 C-4.33 28.66 -4.66 29.32 -5 30 C-5.99 29.67 -6.98 29.34 -8 29 C-9.84610532 28.91760831 -11.69505164 28.89256641 -13.54296875 28.90234375 C-15.15268555 28.90717773 -15.15268555 28.90717773 -16.79492188 28.91210938 C-17.91447266 28.92048828 -19.03402344 28.92886719 -20.1875 28.9375 C-21.88422852 28.94426758 -21.88422852 28.94426758 -23.61523438 28.95117188 C-26.41020927 28.96296502 -29.2050782 28.9794235 -32 29 C-32 27.02 -32 25.04 -32 23 C-31.34 23.33 -30.68 23.66 -30 24 C-28.29636178 24.22622081 -26.58671299 24.40888473 -24.875 24.5625 C-23.26625 24.706875 -21.6575 24.85125 -20 25 C-20 20.71 -20 16.42 -20 12 C-23.96 12 -27.92 12 -32 12 C-32 10.02 -32 8.04 -32 6 C-31.34 6 -30.68 6 -30 6 C-30 6.66 -30 7.32 -30 8 C-22.41 8 -14.82 8 -7 8 C-7.33 6.35 -7.66 4.7 -8 3 C-5.525 3.495 -5.525 3.495 -3 4 C-2.01 2.68 -1.02 1.36 0 0 Z " fill="#5E3929" transform="translate(86,100)"/>
<path d="M0 0 C4.72801777 0.75648284 7.78986214 3.16486214 11.125 6.5 C10.7692194 9.87991574 9.76784201 12.54288438 8.125 15.5 C9.775 16.82 11.425 18.14 13.125 19.5 C14.115 17.52 15.105 15.54 16.125 13.5 C17.775 13.5 19.425 13.5 21.125 13.5 C20.465 14.345625 19.805 15.19125 19.125 16.0625 C16.87227595 19.93436947 16.77322304 22.10278797 17.125 26.5 C19.20053648 27.0534764 20.96865964 27.5 23.125 27.5 C23.393125 26.79875 23.66125 26.0975 23.9375 25.375 C27.9880137 15.56849315 27.9880137 15.56849315 32.125 13.5 C35.16258694 13.57593967 36.83575287 14.32801522 39.4375 15.875 C42.13224425 20.0668244 41.61457954 24.64433404 41.125 29.5 C40.125 30.5 40.125 30.5 37.0625 30.5625 C36.093125 30.541875 35.12375 30.52125 34.125 30.5 C34.785 30.005 35.445 29.51 36.125 29 C39.0077217 25.39659788 38.42700997 23.03014958 38.125 18.5 C35.815 18.17 33.505 17.84 31.125 17.5 C30.8775 18.36625 30.63 19.2325 30.375 20.125 C28.94406411 23.9885269 27.07150436 27.55349564 24.125 30.5 C21.25 30.75 21.25 30.75 18.125 30.5 C16.4296875 28.984375 16.4296875 28.984375 15.125 27.5 C14.84527344 28.04269531 14.56554687 28.58539063 14.27734375 29.14453125 C12.0814461 33.06325535 10.65266777 35.1929933 6.6875 37.5 C3.28627754 38.45472911 0.63216461 38.7566218 -2.875 38.5 C-3.205 41.14 -3.535 43.78 -3.875 46.5 C-3.1325 46.5825 -2.39 46.665 -1.625 46.75 C1.83515935 47.69367982 3.07874685 48.544301 5.125 51.5 C5.59929537 56.48010142 5.39381984 59.96236032 3.125 64.5 C4.15560547 64.68175781 4.15560547 64.68175781 5.20703125 64.8671875 C6.10808594 65.03476563 7.00914062 65.20234375 7.9375 65.375 C8.83082031 65.53742188 9.72414062 65.69984375 10.64453125 65.8671875 C13.125 66.5 13.125 66.5 16.125 68.5 C16.125 69.82 16.125 71.14 16.125 72.5 C13.13544497 73.99477752 10.08268503 73.52167063 6.8125 73.4375 C1.94894782 73.31841204 -1.44688726 73.50346496 -5.875 75.5 C-9.1875 75.625 -9.1875 75.625 -11.875 75.5 C-10.885 75.005 -10.885 75.005 -9.875 74.5 C-9.545 73.51 -9.215 72.52 -8.875 71.5 C-7.225 72.16 -5.575 72.82 -3.875 73.5 C-4.535 72.18 -5.195 70.86 -5.875 69.5 C-4.885 69.5 -3.895 69.5 -2.875 69.5 C-3.514375 68.860625 -4.15375 68.22125 -4.8125 67.5625 C-9.24335118 60.98335734 -7.87495718 53.36945948 -6.4375 45.9375 C-6.28990234 45.11958984 -6.14230469 44.30167969 -5.99023438 43.45898438 C-5.6297633 41.47057943 -5.25400449 39.48495572 -4.875 37.5 C-6.02548828 37.31630859 -6.02548828 37.31630859 -7.19921875 37.12890625 C-10.53664985 36.34448814 -12.33647633 34.74840668 -14.875 32.5 C-14.545 31.84 -14.215 31.18 -13.875 30.5 C-13.111875 31.139375 -12.34875 31.77875 -11.5625 32.4375 C-7.38211569 35.64570192 -4.32146599 35.61333135 0.8125 35.5625 C1.99199219 35.55347656 3.17148438 35.54445312 4.38671875 35.53515625 C5.29035156 35.52355469 6.19398438 35.51195312 7.125 35.5 C6.465 34.18 5.805 32.86 5.125 31.5 C4.58875 31.83 4.0525 32.16 3.5 32.5 C0.5207242 33.75443192 -1.66816197 33.77292239 -4.875 33.5 C-5.865 32.84 -6.855 32.18 -7.875 31.5 C-7.545 30.51 -7.215 29.52 -6.875 28.5 C-6.545 29.16 -6.215 29.82 -5.875 30.5 C-3.235 30.5 -0.595 30.5 2.125 30.5 C2.8064823 28.60820797 2.8064823 28.60820797 3.125 26.5 C2.465 25.84 1.805 25.18 1.125 24.5 C1 21.875 1 21.875 1.125 19.5 C-0.525 19.17 -2.175 18.84 -3.875 18.5 C-4.125 16.1875 -4.125 16.1875 -3.875 13.5 C-1.875 11.6875 -1.875 11.6875 0.125 10.5 C-1.8890476 7.4789286 -3.50779613 5.89332574 -6.875 4.5 C-4.670151 1.78633969 -3.49888303 0.6085014 0 0 Z " fill="#471C1B" transform="translate(177.875,99.5)"/>
<path d="M0 0 C7.64819893 7.64819893 5.29408947 25.05178718 5.32348633 34.94873047 C4.99013647 71.22948883 -10.21897305 102.21224383 -35 128 C-35.8353125 128.94746094 -35.8353125 128.94746094 -36.6875 129.9140625 C-45.27842874 139.35513523 -57.43413327 145.88408954 -68.4375 152.0625 C-69.25307373 152.5275293 -70.06864746 152.99255859 -70.90893555 153.47167969 C-75.49257639 155.98058067 -79.63265899 157.58199505 -84.76708984 158.53564453 C-87.11304813 159.02350946 -89.28315656 159.72609472 -91.54296875 160.51953125 C-118.11665308 169.645441 -152.65910284 167.62449328 -178.15625 156.11328125 C-180 155 -180 155 -181 153 C-174.75842939 154.48448166 -168.60699536 156.09083403 -162.5 158.0625 C-131.35947911 167.61323555 -95.59274676 161.90175727 -67 147 C-56.33857979 141.17582431 -46.96272886 134.16824874 -38 126 C-37.27554688 125.35804688 -36.55109375 124.71609375 -35.8046875 124.0546875 C-13.48330454 103.17922408 0.36088524 70.20068954 2 40 C2.34318726 26.60139742 1.63428024 13.30771049 0 0 Z " fill="#ADADAD" transform="translate(266,105)"/>
<path d="M0 0 C-3.36035058 1.12011686 -3.9421393 0.91362649 -7.125 -0.25 C-7.93066406 -0.53359375 -8.73632812 -0.8171875 -9.56640625 -1.109375 C-11.05594875 -1.65450452 -12.54347248 -2.20524201 -14.02734375 -2.765625 C-40.76993705 -12.4155435 -70.62562798 -9.16260066 -97 0 C-99.01942403 0.96017007 -101.02499246 1.95150335 -103 3 C-104.49410182 3.55772979 -105.99406988 4.10004549 -107.5 4.625 C-134.92693856 15.5217597 -157.22108363 41.48236429 -169.24609375 67.71875 C-170.22561846 70.12754228 -171.12196296 72.55262075 -172 75 C-172.50466797 76.25296875 -172.50466797 76.25296875 -173.01953125 77.53125 C-182.03778796 100.4990948 -182.52136052 127.35542459 -176.77734375 151.11328125 C-176.07050664 154.64746679 -175.99349615 155.77623132 -177 159 C-188.76908154 132.70511513 -184.74295968 98.75491675 -175.1875 72.5 C-162.26154991 39.59796016 -137.03893979 13.66520187 -105 -1 C-99.45338692 -3.40655619 -93.81079289 -5.33812605 -88 -7 C-87.26539551 -7.21027832 -86.53079102 -7.42055664 -85.77392578 -7.63720703 C-56.95539941 -15.46637434 -27.04840139 -11.75730268 0 0 Z " fill="#AFAFAF" transform="translate(190,17)"/>
<path d="M0 0 C-1.32 0.33 -2.64 0.66 -4 1 C-4.0928125 2.3303125 -4.0928125 2.3303125 -4.1875 3.6875 C-5.20556964 7.83809163 -6.6821701 9.36081713 -10 12 C-10.82371094 12.07476562 -11.64742187 12.14953125 -12.49609375 12.2265625 C-15.32495765 12.77961947 -15.32495765 12.77961947 -16.58203125 15.94140625 C-16.98808594 17.13636719 -17.39414063 18.33132812 -17.8125 19.5625 C-18.44091797 21.35880859 -18.44091797 21.35880859 -19.08203125 23.19140625 C-19.38496094 24.11824219 -19.68789062 25.04507813 -20 26 C-19.01 26.33 -18.02 26.66 -17 27 C-17 28.98 -17 30.96 -17 33 C-19.31 33.99 -21.62 34.98 -24 36 C-23.67 37.32 -23.34 38.64 -23 40 C-22.34 40 -21.68 40 -21 40 C-20.78244334 45.4389165 -20.89571616 49.87080814 -23 55 C-20.525 57.475 -20.525 57.475 -18 60 C-17.67 59.34 -17.34 58.68 -17 58 C-17 59.32 -17 60.64 -17 62 C-18.29735507 63.04625409 -19.63266972 64.04701223 -21 65 C-21.33 65.99 -21.66 66.98 -22 68 C-21.01 68 -20.02 68 -19 68 C-19 67.01 -19 66.02 -19 65 C-18.34 65.33 -17.68 65.66 -17 66 C-17 67.32 -17 68.64 -17 70 C-25.91 70 -34.82 70 -44 70 C-41.60236815 67.60236815 -40.66726502 67.65719414 -37.375 67.375 C-36.14910156 67.26285156 -36.14910156 67.26285156 -34.8984375 67.1484375 C-34.27195313 67.09945312 -33.64546875 67.05046875 -33 67 C-29.12828121 58.8739815 -30.61120973 48.67993918 -32 40 C-30.515 39.505 -30.515 39.505 -29 39 C-29.495 38.0409375 -29.495 38.0409375 -30 37.0625 C-31.56662401 32.26471398 -32.21050715 27.54672081 -29.984375 22.86328125 C-28.6875 20.9375 -28.6875 20.9375 -26 18 C-25.01 18 -24.02 18 -23 18 C-23.66 21.96 -24.32 25.92 -25 30 C-21.59950931 23.11182655 -19.24434641 17.69691186 -19 10 C-19.33 9.34 -19.66 8.68 -20 8 C-20.45693563 2.63100635 -20.45693563 2.63100635 -18.6875 0.1875 C-13.08081467 -3.75794523 -5.93861279 -2.37544512 0 0 Z " fill="#542015" transform="translate(170,105)"/>
<path d="M0 0 C2.18959146 1.6057004 4.02413224 3.3919274 5.875 5.375 C5.545 6.365 5.215 7.355 4.875 8.375 C5.535 8.705 6.195 9.035 6.875 9.375 C5.225 10.365 3.575 11.355 1.875 12.375 C0.885 11.385 -0.105 10.395 -1.125 9.375 C-2.115 9.87 -2.115 9.87 -3.125 10.375 C-3.38468082 12.74163657 -3.5318877 15.12098069 -3.625 17.5 C-3.83699469 22.85286603 -4.49565596 27.31614955 -6.125 32.375 C-8.105 32.375 -10.085 32.375 -12.125 32.375 C-12.125 29.075 -12.125 25.775 -12.125 22.375 C-13.115 22.375 -14.105 22.375 -15.125 22.375 C-16.125 21.375 -16.125 21.375 -16.22265625 19.30859375 C-16.20525391 18.07302734 -16.20525391 18.07302734 -16.1875 16.8125 C-16.17847656 15.98621094 -16.16945313 15.15992188 -16.16015625 14.30859375 C-16.14855469 13.67050781 -16.13695313 13.03242188 -16.125 12.375 C-16.785 12.375 -17.445 12.375 -18.125 12.375 C-17.980625 13.24382812 -17.83625 14.11265625 -17.6875 15.0078125 C-17.501875 16.16023438 -17.31625 17.31265625 -17.125 18.5 C-16.8465625 20.20542969 -16.8465625 20.20542969 -16.5625 21.9453125 C-16.15543951 25.13637602 -16.04690098 28.16317791 -16.125 31.375 C-16.785 31.375 -17.445 31.375 -18.125 31.375 C-18.125 30.715 -18.125 30.055 -18.125 29.375 C-18.785 29.375 -19.445 29.375 -20.125 29.375 C-20.455 30.035 -20.785 30.695 -21.125 31.375 C-23.38370108 27.98694839 -23.41759413 26.60149259 -23.5390625 22.61328125 C-23.57773438 21.49501953 -23.61640625 20.37675781 -23.65625 19.22460938 C-23.6871875 18.05736328 -23.718125 16.89011719 -23.75 15.6875 C-23.78867188 14.50865234 -23.82734375 13.32980469 -23.8671875 12.11523438 C-23.96154391 9.20198023 -24.04713161 6.28873393 -24.125 3.375 C-23.465 3.375 -22.805 3.375 -22.125 3.375 C-21.795 2.385 -21.465 1.395 -21.125 0.375 C-20.55523437 0.53613281 -19.98546875 0.69726562 -19.3984375 0.86328125 C-14.4457428 1.97806305 -9.60957514 1.87919533 -4.8125 0.25 C-2.125 -0.625 -2.125 -0.625 0 0 Z " fill="#D28031" transform="translate(118.125,140.625)"/>
<path d="M0 0 C2.475 0.495 2.475 0.495 5 1 C7.1111117 6.36723313 8.55406759 10.26190427 7 16 C6.81050781 17.13695312 6.81050781 17.13695312 6.6171875 18.296875 C6.40449219 19.51117188 6.40449219 19.51117188 6.1875 20.75 C6.05730469 21.50796875 5.92710938 22.2659375 5.79296875 23.046875 C5 25 5 25 2.92578125 26.265625 C2.29027344 26.50796875 1.65476562 26.7503125 1 27 C0.67 26.67 0.34 26.34 0 26 C-1.78071246 25.91273777 -3.5648314 25.89300959 -5.34765625 25.90234375 C-6.42724609 25.90556641 -7.50683594 25.90878906 -8.61914062 25.91210938 C-10.32360352 25.92467773 -10.32360352 25.92467773 -12.0625 25.9375 C-13.20267578 25.94201172 -14.34285156 25.94652344 -15.51757812 25.95117188 C-18.34510351 25.96300253 -21.1725264 25.9794859 -24 26 C-24 24.02 -24 22.04 -24 20 C-23.34 20.33 -22.68 20.66 -22 21 C-20.29636178 21.22622081 -18.58671299 21.40888473 -16.875 21.5625 C-15.26625 21.706875 -13.6575 21.85125 -12 22 C-12 17.71 -12 13.42 -12 9 C-15.96 9 -19.92 9 -24 9 C-24 7.02 -24 5.04 -24 3 C-23.34 3 -22.68 3 -22 3 C-22 3.66 -22 4.32 -22 5 C-14.41 5 -6.82 5 1 5 C0.67 3.35 0.34 1.7 0 0 Z " fill="#E3E2E2" transform="translate(78,103)"/>
<path d="M0 0 C4.72801777 0.75648284 7.78986214 3.16486214 11.125 6.5 C10.7692194 9.87991574 9.76784201 12.54288438 8.125 15.5 C9.775 16.82 11.425 18.14 13.125 19.5 C14.115 17.52 15.105 15.54 16.125 13.5 C17.775 13.5 19.425 13.5 21.125 13.5 C20.135 14.7684375 20.135 14.7684375 19.125 16.0625 C16.87227595 19.93436947 16.77322304 22.10278797 17.125 26.5 C19.20053648 27.0534764 20.96865964 27.5 23.125 27.5 C23.393125 26.79875 23.66125 26.0975 23.9375 25.375 C27.9880137 15.56849315 27.9880137 15.56849315 32.125 13.5 C35.16258694 13.57593967 36.83575287 14.32801522 39.4375 15.875 C42.13224425 20.0668244 41.61457954 24.64433404 41.125 29.5 C40.125 30.5 40.125 30.5 37.0625 30.5625 C36.093125 30.541875 35.12375 30.52125 34.125 30.5 C34.785 30.005 35.445 29.51 36.125 29 C39.0077217 25.39659788 38.42700997 23.03014958 38.125 18.5 C35.815 18.17 33.505 17.84 31.125 17.5 C30.8775 18.36625 30.63 19.2325 30.375 20.125 C28.94406411 23.9885269 27.07150436 27.55349564 24.125 30.5 C18.71323529 30.97058824 18.71323529 30.97058824 16.25 29 C15.87875 28.505 15.5075 28.01 15.125 27.5 C14.465 28.82 13.805 30.14 13.125 31.5 C10.7818787 31.24438677 8.44656597 30.90729228 6.125 30.5 C5.795 29.84 5.465 29.18 5.125 28.5 C5.805625 27.9225 6.48625 27.345 7.1875 26.75 C7.826875 26.0075 8.46625 25.265 9.125 24.5 C8.98858623 22.28141747 8.98858623 22.28141747 8.125 20.5 C5.815 20.83 3.505 21.16 1.125 21.5 C1.125 20.84 1.125 20.18 1.125 19.5 C-0.525 19.17 -2.175 18.84 -3.875 18.5 C-4.125 16.1875 -4.125 16.1875 -3.875 13.5 C-1.875 11.6875 -1.875 11.6875 0.125 10.5 C-1.8890476 7.4789286 -3.50779613 5.89332574 -6.875 4.5 C-4.670151 1.78633969 -3.49888303 0.6085014 0 0 Z " fill="#A65E5C" transform="translate(177.875,99.5)"/>
<path d="M0 0 C1.65 0.33 3.3 0.66 5 1 C5 1.66 5 2.32 5 3 C5.99 3.33 6.98 3.66 8 4 C9.578125 5.671875 9.578125 5.671875 11.25 7.75 C14.49683246 11.59912334 17.79366869 14.25300813 22 17 C20.625 19 20.625 19 19 21 C18.34 21 17.68 21 17 21 C16.67 22.32 16.34 23.64 16 25 C12.37 25.33 8.74 25.66 5 26 C4.525625 27.27875 4.05125 28.5575 3.5625 29.875 C2.78120466 31.98110049 2.00494263 33.99011473 1 36 C-0.67262717 34.38113585 -2.33795537 32.7547271 -4 31.125 C-4.928125 30.22007813 -5.85625 29.31515625 -6.8125 28.3828125 C-9 26 -9 26 -9 24 C-9.99 23.67 -10.98 23.34 -12 23 C-12 22.01 -12 21.02 -12 20 C-3.09 20 5.82 20 15 20 C13.81366271 15.25465084 11.51085813 13.0992405 8.125 9.8125 C7.58230469 9.26658203 7.03960937 8.72066406 6.48046875 8.15820312 C4.02487388 5.7356297 2.31333991 4.10444664 -1 3 C-0.67 2.01 -0.34 1.02 0 0 Z " fill="#969696" transform="translate(74,65)"/>
<path d="M0 0 C-1.32 0.33 -2.64 0.66 -4 1 C-4.0928125 2.3303125 -4.0928125 2.3303125 -4.1875 3.6875 C-5.20556964 7.83809163 -6.6821701 9.36081713 -10 12 C-10.82371094 12.07476562 -11.64742187 12.14953125 -12.49609375 12.2265625 C-15.32495765 12.77961947 -15.32495765 12.77961947 -16.58203125 15.94140625 C-16.98808594 17.13636719 -17.39414063 18.33132812 -17.8125 19.5625 C-18.44091797 21.35880859 -18.44091797 21.35880859 -19.08203125 23.19140625 C-19.38496094 24.11824219 -19.68789062 25.04507813 -20 26 C-19.01 26.33 -18.02 26.66 -17 27 C-17 28.98 -17 30.96 -17 33 C-19.97 33.99 -22.94 34.98 -26 36 C-27.38125018 33.23749964 -27.19079306 31.05268901 -27 28 C-26.34 27.34 -25.68 26.68 -25 26 C-25 27.32 -25 28.64 -25 30 C-21.58952751 23.26714841 -19.24105969 17.59338012 -19 10 C-19.33 9.34 -19.66 8.68 -20 8 C-20.45693563 2.63100635 -20.45693563 2.63100635 -18.6875 0.1875 C-13.08081467 -3.75794523 -5.93861279 -2.37544512 0 0 Z " fill="#0B0606" transform="translate(170,105)"/>
<path d="M0 0 C3.1606916 4.51527371 3.71844611 8.39472752 3.3125 13.875 C2.3225 15.36 2.3225 15.36 1.3125 16.875 C-0.3375 16.545 -1.9875 16.215 -3.6875 15.875 C-3.6875 16.535 -3.6875 17.195 -3.6875 17.875 C-3.0275 18.205 -2.3675 18.535 -1.6875 18.875 C-3.3375 19.205 -4.9875 19.535 -6.6875 19.875 C-6.6875 20.535 -6.6875 21.195 -6.6875 21.875 C-7.6775 21.875 -8.6675 21.875 -9.6875 21.875 C-9.6875 20.885 -9.6875 19.895 -9.6875 18.875 C-10.3475 18.875 -11.0075 18.875 -11.6875 18.875 C-11.6875 18.215 -11.6875 17.555 -11.6875 16.875 C-12.3475 16.875 -13.0075 16.875 -13.6875 16.875 C-14.0175 17.865 -14.3475 18.855 -14.6875 19.875 C-16.6675 20.205 -18.6475 20.535 -20.6875 20.875 C-20.6875 16.875 -20.6875 16.875 -18.5625 14.125 C-15.24680365 11.5301072 -13.78635218 11.39838928 -9.6875 11.875 C-9.63851562 11.26011719 -9.58953125 10.64523438 -9.5390625 10.01171875 C-9.46429688 9.20347656 -9.38953125 8.39523438 -9.3125 7.5625 C-9.20808594 6.36173828 -9.20808594 6.36173828 -9.1015625 5.13671875 C-8.6875 2.875 -8.6875 2.875 -6.6875 -0.125 C-2.4625 -1.64166667 -2.4625 -1.64166667 0 0 Z " fill="#D38030" transform="translate(126.6875,116.125)"/>
<path d="M0 0 C2.5625 1.5625 2.5625 1.5625 4 4 C4.6875 7.375 4.6875 7.375 4 11 C2.26759923 12.65671335 0.41500085 14.01671623 -1.5078125 15.4453125 C-3.4530616 17.10689687 -3.4530616 17.10689687 -2.9375 20.875 C-2.628125 21.90625 -2.31875 22.9375 -2 24 C-1.34 24 -0.68 24 0 24 C0 24.66 0 25.32 0 26 C-1.65 26.33 -3.3 26.66 -5 27 C-5.30292969 26.23816406 -5.60585937 25.47632812 -5.91796875 24.69140625 C-8.29874243 18.8237148 -10.80110479 13.26094378 -14.08203125 7.83984375 C-15 6 -15 6 -15 3 C-10.029979 -0.05847446 -5.71523217 -0.95434617 0 0 Z " fill="#E2E2E2" transform="translate(110,45)"/>
<path d="M0 0 C0.33 0 0.66 0 1 0 C1.02505615 0.71655762 1.0501123 1.43311523 1.07592773 2.17138672 C1.19169751 5.40611514 1.31450969 8.64053841 1.4375 11.875 C1.47681641 13.00292969 1.51613281 14.13085938 1.55664062 15.29296875 C1.59853516 16.36933594 1.64042969 17.44570312 1.68359375 18.5546875 C1.72025146 19.54968262 1.75690918 20.54467773 1.79467773 21.56982422 C1.84959532 24.00779501 1.84959532 24.00779501 3 26 C3.99 25.67 4.98 25.34 6 25 C6 25.66 6 26.32 6 27 C6.66 27 7.32 27 8 27 C7.855625 26.04738281 7.71125 25.09476563 7.5625 24.11328125 C7.376875 22.85902344 7.19125 21.60476562 7 20.3125 C6.814375 19.07113281 6.62875 17.82976562 6.4375 16.55078125 C6.07899589 13.64113629 5.91057744 10.92299978 6 8 C6.66 8 7.32 8 8 8 C8.04898438 8.63808594 8.09796875 9.27617187 8.1484375 9.93359375 C8.22320312 10.75988281 8.29796875 11.58617187 8.375 12.4375 C8.44460937 13.26121094 8.51421875 14.08492187 8.5859375 14.93359375 C8.72257812 15.61550781 8.85921875 16.29742187 9 17 C9.66 17.33 10.32 17.66 11 18 C11.33 14.37 11.66 10.74 12 7 C12.33 7 12.66 7 13 7 C13 13.6 13 20.2 13 27 C14.65 26.67 16.3 26.34 18 26 C18.98142381 21.75266168 19.30920379 17.52675467 19.5625 13.1875 C19.60568359 12.49462891 19.64886719 11.80175781 19.69335938 11.08789062 C19.79861453 9.39211314 19.89972863 7.69607948 20 6 C23.56334257 11.34501386 22.01378848 17.91726909 21 24 C22.32 24 23.64 24 25 24 C25.33 23.01 25.66 22.02 26 21 C26.66 22.32 27.32 23.64 28 25 C26.35 25.33 24.7 25.66 23 26 C25.12780579 28.34058637 27.11562221 29.70700306 30 31 C24.83916597 31.09054095 20.11549069 30.7673236 15 30 C14.01 29.95101562 13.02 29.90203125 12 29.8515625 C10.9275 29.79742187 9.855 29.74328125 8.75 29.6875 C7.22632812 29.63142578 7.22632812 29.63142578 5.671875 29.57421875 C3 29 3 29 1.203125 27.33203125 C-1.3922443 22.30139659 -1.13612484 16.92629634 -1.125 11.375 C-1.12757812 10.08335937 -1.13015625 8.79171875 -1.1328125 7.4609375 C-1.0283103 4.73773315 -0.82214646 2.57083894 0 0 Z " fill="#543623" transform="translate(94,145)"/>
<path d="M0 0 C0.33 0 0.66 0 1 0 C2.33333333 6.66666667 3.66666667 13.33333333 5 20 C5.639375 19.814375 6.27875 19.62875 6.9375 19.4375 C7.618125 19.293125 8.29875 19.14875 9 19 C9.33 19.33 9.66 19.66 10 20 C11.98 17.03 13.96 14.06 16 11 C20 12 20 12 21 13 C20.71269945 15.33944736 20.38063221 17.6739143 20 20 C19 17 19 17 20 14 C17.41515408 14.9804588 16.05156969 15.93922143 14.25 18.0625 C11.55117242 24.40474481 12.84515863 30.67015347 15 37 C14.01 37 13.02 37 12 37 C11.67 37.99 11.34 38.98 11 40 C10.01886757 38.70982586 9.04015801 37.41780894 8.0625 36.125 C7.51722656 35.40570313 6.97195312 34.68640625 6.41015625 33.9453125 C5 32 5 32 4 30 C4.33 29.34 4.66 28.68 5 28 C4.34 27.67 3.68 27.34 3 27 C3 25.68 3 24.36 3 23 C2.34 23.33 1.68 23.66 1 24 C1.33 23.01 1.66 22.02 2 21 C2.43016288 15.40788256 1.7770539 11.78802397 -1 7 C-3.57732914 5.94832473 -3.57732914 5.94832473 -6 6 C-6.33 4.68 -6.66 3.36 -7 2 C-2.25 3.875 -2.25 3.875 0 5 C0 3.35 0 1.7 0 0 Z " fill="#381D17" transform="translate(127,109)"/>
<path d="M0 0 C6.24157061 1.48448166 12.39300464 3.09083403 18.5 5.0625 C43.93090485 12.86210772 71.096293 9.8271046 95.97973633 1.63256836 C97.97220786 1.00870205 99.96989617 0.48580029 102 0 C101.9296875 1.83984375 101.9296875 1.83984375 101 4 C98.64983851 5.10614268 96.60032653 5.8624047 94.125 6.5625 C93.40666992 6.77156982 92.68833984 6.98063965 91.94824219 7.19604492 C63.44244144 15.13852427 30.17757129 15.45369763 2.84375 3.11328125 C1 2 1 2 0 0 Z " fill="#A9A9A9" transform="translate(85,258)"/>
<path d="M0 0 C7.64819893 7.64819893 5.29408947 25.05178718 5.32348633 34.94873047 C5.17068185 51.57949292 3.0518683 70.64186408 -6 85 C-6.66 84.01 -7.32 83.02 -8 82 C-7.2189727 79.31012992 -6.34868708 76.83975033 -5.3125 74.25 C3.72956958 50.24475537 3.08448873 25.11655106 0 0 Z " fill="#A0A0A0" transform="translate(266,105)"/>
<path d="M0 0 C2.5 2.125 2.5 2.125 4 5 C4 10.57030254 2.24135353 13.71304856 -1 18 C-1.99 17.34 -2.98 16.68 -4 16 C-4 15.34 -4 14.68 -4 14 C-4.598125 13.731875 -5.19625 13.46375 -5.8125 13.1875 C-7.99847854 12.00082594 -9.41332594 10.90400887 -11 9 C-11 8.34 -11 7.68 -11 7 C-12.32 6.34 -13.64 5.68 -15 5 C-7.08534067 -1.71025465 -7.08534067 -1.71025465 0 0 Z " fill="#E8E8E8" transform="translate(90,59)"/>
<path d="M0 0 C0.66 0.33 1.32 0.66 2 1 C1.61393137 5.34327206 0.71696465 8.93502155 -0.875 13 C-9.27075511 35.1647935 -9.28309208 61.34092788 -3.77734375 84.11328125 C-3.07050664 87.64746679 -2.99349615 88.77623132 -4 92 C-15.80166896 65.63230718 -11.62603961 31.89790981 -2.1875 5.5625 C-1.47374554 3.70234607 -0.75151939 1.84521995 0 0 Z " fill="#9B9B9B" transform="translate(17,84)"/>
<path d="M0 0 C0.99 0 1.98 0 3 0 C1.69569529 6.877243 -0.42490317 13.21190757 -2.87890625 19.765625 C-3.83572516 22.52606424 -4.51908571 25.12532131 -5 28 C-6.32 26.68 -7.64 25.36 -9 24 C-8.01 21.03 -7.02 18.06 -6 15 C-9.27815312 11.76595364 -9.27815312 11.76595364 -13.625 11.0625 C-16.1080208 12.04263979 -17.22696837 13.05810822 -19 15 C-19.66 15 -20.32 15 -21 15 C-21 14.34 -21 13.68 -21 13 C-21.66 13 -22.32 13 -23 13 C-23 12.34 -23 11.68 -23 11 C-22.39414063 10.76925781 -21.78828125 10.53851563 -21.1640625 10.30078125 C-15.63398603 8.14830533 -10.36668764 5.74436645 -5.12890625 2.953125 C-3 2 -3 2 0 2 C0 1.34 0 0.68 0 0 Z " fill="#D3D3D3" transform="translate(188,58)"/>
<path d="M0 0 C3.375 0.3125 3.375 0.3125 7 1 C9.29633824 4.44450737 9.54016485 6.93812283 10 11 C9.01 11.495 9.01 11.495 8 12 C6.94647157 14.30965848 5.94280904 16.6429774 5 19 C8.63 19 12.26 19 16 19 C16.33 20.65 16.66 22.3 17 24 C5.22488622 23.06637447 5.22488622 23.06637447 1.25 19.1875 C-2.37173382 14.17442562 -1.64983736 7.8814394 -1 2 C-0.67 1.34 -0.34 0.68 0 0 Z " fill="#D75954" transform="translate(173,148)"/>
<path d="M0 0 C1.2065625 0.0309375 1.2065625 0.0309375 2.4375 0.0625 C2.4375 4.0625 2.4375 4.0625 1.4375 7.0625 C4.40815509 6.72022428 4.40815509 6.72022428 7.4375 6.0625 C7.7675 5.4025 8.0975 4.7425 8.4375 4.0625 C9.0975 4.0625 9.7575 4.0625 10.4375 4.0625 C10.4375 4.7225 10.4375 5.3825 10.4375 6.0625 C11.0975 6.0625 11.7575 6.0625 12.4375 6.0625 C12.4375 7.0525 12.4375 8.0425 12.4375 9.0625 C13.4275 9.0625 14.4175 9.0625 15.4375 9.0625 C15.1075 8.0725 14.7775 7.0825 14.4375 6.0625 C16.0875 6.0625 17.7375 6.0625 19.4375 6.0625 C19.1075 5.0725 18.7775 4.0825 18.4375 3.0625 C20.9125 3.5575 20.9125 3.5575 23.4375 4.0625 C23.4375 5.3825 23.4375 6.7025 23.4375 8.0625 C21.7875 8.0625 20.1375 8.0625 18.4375 8.0625 C18.4375 9.0525 18.4375 10.0425 18.4375 11.0625 C19.0975 11.3925 19.7575 11.7225 20.4375 12.0625 C19.4475 12.0625 18.4575 12.0625 17.4375 12.0625 C18.0975 13.3825 18.7575 14.7025 19.4375 16.0625 C15.4375 14.0625 15.4375 14.0625 13.5625 12.8125 C10.44568914 11.71244911 8.53764121 13.00962185 5.4375 14.0625 C1.66220519 14.35795785 -2.05959439 14.50790657 -5.7109375 13.42578125 C-6.62746094 13.24595703 -6.62746094 13.24595703 -7.5625 13.0625 C-8.2225 13.7225 -8.8825 14.3825 -9.5625 15.0625 C-9.8925 13.4125 -10.2225 11.7625 -10.5625 10.0625 C-4.6225 11.5475 -4.6225 11.5475 1.4375 13.0625 C1.1075 11.4125 0.7775 9.7625 0.4375 8.0625 C-1.8725 8.3925 -4.1825 8.7225 -6.5625 9.0625 C-6.5625 8.0725 -6.5625 7.0825 -6.5625 6.0625 C-5.2425 6.3925 -3.9225 6.7225 -2.5625 7.0625 C-2.748125 6.093125 -2.93375 5.12375 -3.125 4.125 C-3.269375 3.114375 -3.41375 2.10375 -3.5625 1.0625 C-2.5625 0.0625 -2.5625 0.0625 0 0 Z " fill="#985B27" transform="translate(104.5625,128.9375)"/>
<path d="M0 0 C-3.36035058 1.12011686 -3.9421393 0.91362649 -7.125 -0.25 C-7.93066406 -0.53359375 -8.73632812 -0.8171875 -9.56640625 -1.109375 C-11.05594875 -1.65450452 -12.54347248 -2.20524201 -14.02734375 -2.765625 C-36.24609744 -10.78314073 -61.12919664 -9.73490757 -83.81640625 -4.26953125 C-86.41107918 -3.94925856 -88.47632398 -4.3746251 -91 -5 C-66.86436189 -21.0904254 -24.40971175 -10.61032647 0 0 Z " fill="#8B8B8B" transform="translate(190,17)"/>
<path d="M0 0 C0.99 0 1.98 0 3 0 C2.67 2.64 2.34 5.28 2 8 C1.34 8 0.68 8 0 8 C-0.23757933 12.51400735 -0.35448137 15.20241691 1.5 19.375 C3.43007957 24.03935896 3.7694044 28.01524173 3 33 C1.91696032 35.46367134 0.79095046 36.9376934 -1 39 C-1.33 39 -1.66 39 -2 39 C-2.125 36.125 -2.125 36.125 -2 33 C-1.34 32.34 -0.68 31.68 0 31 C-0.32198966 27.90073181 -0.32198966 27.90073181 -1 25 C-1.66 26.32 -2.32 27.64 -3 29 C-3.99 26.69 -4.98 24.38 -6 22 C-5.01 21.67 -4.02 21.34 -3 21 C-3.33 20.360625 -3.66 19.72125 -4 19.0625 C-5.56662401 14.26471398 -6.21050715 9.54672081 -3.984375 4.86328125 C-2.6875 2.9375 -2.6875 2.9375 0 0 Z " fill="#CD7D32" transform="translate(144,123)"/>
<path d="M0 0 C3.89334477 1.59905232 4.81655633 2.67450827 6.5 6.4375 C4.85 7.0975 3.2 7.7575 1.5 8.4375 C1.5 10.0875 1.5 11.7375 1.5 13.4375 C0.84 13.4375 0.18 13.4375 -0.5 13.4375 C-0.83 14.4275 -1.16 15.4175 -1.5 16.4375 C-4.375 16.5625 -4.375 16.5625 -7.5 16.4375 C-9.5 14.4375 -9.5 14.4375 -9.8125 11.75 C-9.43893563 7.79021767 -8.32835985 4.95878563 -6.5 1.4375 C-3.5 -0.5625 -3.5 -0.5625 0 0 Z " fill="#D35854" transform="translate(172.5,104.5625)"/>
<path d="M0 0 C11.08709028 9.71346847 15.59993796 33.71020214 16.5625 47.8125 C17.22182955 58.50829052 17.76803553 69.39178685 16 80 C15.67 80 15.34 80 15 80 C14.98018066 79.2251123 14.96036133 78.45022461 14.93994141 77.65185547 C14.28476271 53.30165042 12.7938833 30.31655211 2.2355957 7.98681641 C0.8779366 5.11483075 0 3.22408665 0 0 Z " fill="#191919" transform="translate(252,73)"/>
<path d="M0 0 C0 0.33 0 0.66 0 1 C-1.22332031 1.08636719 -2.44664062 1.17273438 -3.70703125 1.26171875 C-32.97576321 3.59407541 -59.05740948 13.61985646 -82 32 C-82 31.01 -82 30.02 -82 29 C-60.64459173 8.10467234 -29.04264324 -0.6710752 0 0 Z " fill="#181818" transform="translate(135,5)"/>
<path d="M0 0 C2.0633113 0.62231644 4.1256169 1.24796785 6.1875 1.875 C7.33605469 2.22304688 8.48460937 2.57109375 9.66796875 2.9296875 C12.50871157 3.84218871 15.24885465 4.84980364 18 6 C18 7.65 18 9.3 18 11 C17.34 11 16.68 11 16 11 C15.34 9.68 14.68 8.36 14 7 C13.01 7 12.02 7 11 7 C9.02 11.95 7.04 16.9 5 22 C4.34 22 3.68 22 3 22 C2.67 23.98 2.34 25.96 2 28 C0.35 27.67 -1.3 27.34 -3 27 C-2.76289307 26.45061768 -2.52578613 25.90123535 -2.28149414 25.33520508 C-1.203502 22.82975166 -0.13294598 20.32118622 0.9375 17.8125 C1.31068359 16.94818359 1.68386719 16.08386719 2.06835938 15.19335938 C2.60493164 13.93168945 2.60493164 13.93168945 3.15234375 12.64453125 C3.48226318 11.87471924 3.81218262 11.10490723 4.15209961 10.31176758 C5.04009349 7.89068666 5.55847348 5.53730576 6 3 C3.36 3.33 0.72 3.66 -2 4 C-1.34 2.68 -0.68 1.36 0 0 Z " fill="#5E5E5E" transform="translate(157,40)"/>
<path d="M0 0 C4.72801777 0.75648284 7.78986214 3.16486214 11.125 6.5 C11 9 11 9 10.125 11.5 C8.125 12.6875 8.125 12.6875 6.125 13.5 C5.795 14.16 5.465 14.82 5.125 15.5 C5.125 14.84 5.125 14.18 5.125 13.5 C4.5475 13.273125 3.97 13.04625 3.375 12.8125 C0.56372084 11.17258716 -0.85273345 9.02783319 -2.875 6.5 C-4.99160427 5.18834743 -4.99160427 5.18834743 -6.875 4.5 C-4.670151 1.78633969 -3.49888303 0.6085014 0 0 Z " fill="#0B0707" transform="translate(177.875,99.5)"/>
<path d="M0 0 C0 1.32 0 2.64 0 4 C-7.72137646 6.60203125 -14.85301619 8.51361291 -23 9 C-22.34 12.63 -21.68 16.26 -21 20 C-20.01 20.33 -19.02 20.66 -18 21 C-19.32 21.33 -20.64 21.66 -22 22 C-22.83513859 19.52142796 -23.66819125 17.04218933 -24.5 14.5625 C-24.73847656 13.85544922 -24.97695312 13.14839844 -25.22265625 12.41992188 C-27 7.11328125 -27 7.11328125 -27 6 C-26.27296875 5.82984375 -25.5459375 5.6596875 -24.796875 5.484375 C-18.20733075 3.89612587 -11.86156719 2.00503658 -5.49609375 -0.328125 C-3 -1 -3 -1 0 0 Z " fill="#3E3E3E" transform="translate(214,89)"/>
<path d="M0 0 C0 1.98 0 3.96 0 6 C1.98 6 3.96 6 6 6 C6 4.68 6 3.36 6 2 C6.99 2 7.98 2 9 2 C9.25 4.3125 9.25 4.3125 9 7 C7.9790625 7.61875 7.9790625 7.61875 6.9375 8.25 C5.9784375 9.11625 5.9784375 9.11625 5 10 C4.93958153 13.07035688 5.4196492 15.99100725 6 19 C0.46783626 20.13157895 0.46783626 20.13157895 -2 19.4375 C-5.00585062 18.77997018 -7.19400316 19.91586486 -10 21 C-7.45368965 18.02930459 -4.57769851 16.5224249 -1 15 C-0.34 15.33 0.32 15.66 1 16 C0.67 16.66 0.34 17.32 0 18 C0.66 17.34 1.32 16.68 2 16 C2 14.68 2 13.36 2 12 C0.35 12 -1.3 12 -3 12 C-2.979375 11.0925 -2.95875 10.185 -2.9375 9.25 C-2.9889755 6.57327412 -3.2215017 4.53011948 -4 2 C-1 0 -1 0 0 0 Z " fill="#B37031" transform="translate(90,119)"/>
<path d="M0 0 C3.31246031 1.24217261 4.55717083 1.91532129 6.5 4.9375 C6.88824779 8.63124633 6.8725749 12.24228991 6.5 15.9375 C5.5 16.9375 5.5 16.9375 2.4375 17 C1.468125 16.979375 0.49875 16.95875 -0.5 16.9375 C0.16 16.4425 0.82 15.9475 1.5 15.4375 C4.3827217 11.83409788 3.80200997 9.46764958 3.5 4.9375 C1.19 4.6075 -1.12 4.2775 -3.5 3.9375 C-3.7475 4.80375 -3.995 5.67 -4.25 6.5625 C-5.68093589 10.4260269 -7.55349564 13.99099564 -10.5 16.9375 C-13.4375 17.1875 -13.4375 17.1875 -16.5 16.9375 C-17.16 15.9475 -17.82 14.9575 -18.5 13.9375 C-16.19 13.9375 -13.88 13.9375 -11.5 13.9375 C-11.231875 13.23625 -10.96375 12.535 -10.6875 11.8125 C-5.74905863 -0.14372647 -5.74905863 -0.14372647 0 0 Z " fill="#121212" transform="translate(212.5,113.0625)"/>
<path d="M0 0 C0.495 1.485 0.495 1.485 1 3 C-5.12395625 5.99356686 -10.99731191 7.97380666 -17.6875 9.25 C-18.98155762 9.50475098 -18.98155762 9.50475098 -20.30175781 9.76464844 C-27.603604 11.11122267 -34.57350084 11.44263902 -42 11 C-39.20714846 8.20714846 -36.38129879 8.54054011 -32.625 8.25 C-21.28891897 7.17513318 -10.75003083 3.58334361 0 0 Z " fill="#A4A4A4" transform="translate(186,258)"/>
<path d="M0 0 C0.33 0 0.66 0 1 0 C1.02505615 0.9286084 1.0501123 1.8572168 1.07592773 2.81396484 C1.17097932 6.25435804 1.27021707 9.69457713 1.37231445 13.13476562 C1.41566589 14.62462641 1.45734084 16.11453695 1.49731445 17.60449219 C1.55501215 19.74429327 1.61870755 21.88384385 1.68359375 24.0234375 C1.72025146 25.31169434 1.75690918 26.59995117 1.79467773 27.92724609 C1.79530675 30.9127682 1.79530675 30.9127682 3 33 C2.2575 33.144375 1.515 33.28875 0.75 33.4375 C-1.91958229 33.93059024 -1.91958229 33.93059024 -4.125 34.6875 C-6 35 -6 35 -9 33 C-8.3125 31.1875 -8.3125 31.1875 -7 29 C-5.74509766 28.51080078 -5.74509766 28.51080078 -4.46484375 28.01171875 C-1.83618341 26.28706367 -1.83618341 26.28706367 -1.51489258 23.87280273 C-1.31557069 21.11538634 -1.25373594 18.38959534 -1.25 15.625 C-1.21665216 13.74212984 -1.18028963 11.85931018 -1.140625 9.9765625 C-1.13579102 9.14205566 -1.13095703 8.30754883 -1.12597656 7.44775391 C-0.99395093 4.88246508 -0.56177137 2.50340066 0 0 Z " fill="#602120" transform="translate(163,141)"/>
<path d="M0 0 C2.97 0.495 2.97 0.495 6 1 C5.835 2.175625 5.67 3.35125 5.5 4.5625 C4.41310047 14.5178696 3.38890322 25.77780644 8 35 C6.125 34.6875 6.125 34.6875 4 34 C1.61051803 30.41577704 1.69766832 28.62767404 1.5859375 24.36328125 C1.52792969 22.41518555 1.52792969 22.41518555 1.46875 20.42773438 C1.43729483 19.05599427 1.40604749 17.68424939 1.375 16.3125 C1.33680803 14.92901215 1.29775558 13.54554777 1.2578125 12.16210938 C1.16339483 8.7748755 1.07781882 5.38764931 1 2 C0.67 2.66 0.34 3.32 0 4 C-0.66 4 -1.32 4 -2 4 C-1.34 2.68 -0.68 1.36 0 0 Z " fill="#DCCFBF" transform="translate(89,139)"/>
<path d="M0 0 C1.98 0 3.96 0 6 0 C6.91145833 1.69270833 7.82291667 3.38541667 8.734375 5.078125 C9.96893515 7.13565468 9.96893515 7.13565468 12.09765625 8.8515625 C14.57862634 11.65347944 14.55586852 13.43024047 14.6875 17.125 C14.7421091 21.21629113 14.7421091 21.21629113 16 25 C14.02 25 12.04 25 10 25 C10.04125 23.80375 10.0825 22.6075 10.125 21.375 C10.05941499 13.88519235 7.20060597 9.6277678 2.55859375 3.953125 C1 2 1 2 0 0 Z " fill="#171717" transform="translate(117,39)"/>
<path d="M0 0 C0.66 0.33 1.32 0.66 2 1 C1.00956295 5.83628305 0.04301154 10.47618873 -2 15 C-1.01 15.33 -0.02 15.66 1 16 C1 17.98 1 19.96 1 22 C-3.455 23.485 -3.455 23.485 -8 25 C-9.38125018 22.23749964 -9.19079306 20.05268901 -9 17 C-8.34 16.34 -7.68 15.68 -7 15 C-7 16.32 -7 17.64 -7 19 C-3.98421843 12.73822453 -1.41504672 6.81795238 0 0 Z " fill="#22110E" transform="translate(152,116)"/>
<path d="M0 0 C0.33773437 0.84304687 0.67546875 1.68609375 1.0234375 2.5546875 C1.46945313 3.65039062 1.91546875 4.74609375 2.375 5.875 C3.03628906 7.51082031 3.03628906 7.51082031 3.7109375 9.1796875 C4.83051338 12.06329362 4.83051338 12.06329362 7 14 C7.5625 15.875 7.5625 15.875 8 18 C8.185625 18.7425 8.37125 19.485 8.5625 20.25 C8.706875 20.8275 8.85125 21.405 9 22 C9.66 22 10.32 22 11 22 C11 22.66 11 23.32 11 24 C9.35 24.33 7.7 24.66 6 25 C5.69707031 24.23816406 5.39414063 23.47632812 5.08203125 22.69140625 C2.70125757 16.8237148 0.19889521 11.26094378 -3.08203125 5.83984375 C-4 4 -4 4 -4 1 C-2 0 -2 0 0 0 Z " fill="#1C1C1C" transform="translate(99,47)"/>
<path d="M0 0 C-14.30465978 7.88215947 -32.66789549 13.81822178 -49 11 C-49 10.67 -49 10.34 -49 10 C-48.06542969 9.91363281 -47.13085938 9.82726562 -46.16796875 9.73828125 C-32.42620381 8.32332274 -18.45888618 5.5684722 -5.91015625 -0.3984375 C-3.58127733 -1.13186767 -2.27684489 -0.78441636 0 0 Z " fill="#292929" transform="translate(194,255)"/>
<path d="M0 0 C0.99 0.33 1.98 0.66 3 1 C3 3.97 3 6.94 3 10 C2.34 9.67 1.68 9.34 1 9 C-0.81171098 8.84693099 -2.6283794 8.75053339 -4.4453125 8.68359375 C-5.52167969 8.64169922 -6.59804687 8.59980469 -7.70703125 8.55664062 C-9.39892578 8.49766602 -9.39892578 8.49766602 -11.125 8.4375 C-12.26066406 8.39431641 -13.39632812 8.35113281 -14.56640625 8.30664062 C-17.37747768 8.2003396 -20.18863945 8.09830595 -23 8 C-22.67 6.68 -22.34 5.36 -22 4 C-14.41 4.33 -6.82 4.66 1 5 C0.67 3.35 0.34 1.7 0 0 Z " fill="#111111" transform="translate(78,103)"/>
<path d="M0 0 C1.5 1.375 1.5 1.375 3 3 C3 3.66 3 4.32 3 5 C1.47826172 5.61681641 1.47826172 5.61681641 -0.07421875 6.24609375 C-3.86426772 7.87149123 -7.30947464 9.88075545 -10.8125 12.0625 C-11.93269531 12.75472656 -13.05289063 13.44695312 -14.20703125 14.16015625 C-16.99951286 15.8651708 -16.99951286 15.8651708 -19 18 C-19.99 16.35 -20.98 14.7 -22 13 C-20.47826172 12.38318359 -20.47826172 12.38318359 -18.92578125 11.75390625 C-15.13573228 10.12850877 -11.69052536 8.11924455 -8.1875 5.9375 C-7.06730469 5.24527344 -5.94710937 4.55304688 -4.79296875 3.83984375 C-2.00048714 2.1348292 -2.00048714 2.1348292 0 0 Z " fill="#171717" transform="translate(204,74)"/>
<path d="M0 0 C0.33 0 0.66 0 1 0 C2.33333333 6.66666667 3.66666667 13.33333333 5 20 C6.32 19.67 7.64 19.34 9 19 C9 20.65 9 22.3 9 24 C8.01 23.67 7.02 23.34 6 23 C6.52480001 29.28908482 6.52480001 29.28908482 9 35 C7.35 33.35 5.7 31.7 4 30 C4.33 29.34 4.66 28.68 5 28 C4.34 27.67 3.68 27.34 3 27 C3 25.68 3 24.36 3 23 C2.34 23.33 1.68 23.66 1 24 C1.33 23.01 1.66 22.02 2 21 C2.43016288 15.40788256 1.7770539 11.78802397 -1 7 C-3.57732914 5.94832473 -3.57732914 5.94832473 -6 6 C-6.33 4.68 -6.66 3.36 -7 2 C-2.25 3.875 -2.25 3.875 0 5 C0 3.35 0 1.7 0 0 Z " fill="#4B2919" transform="translate(127,109)"/>
<path d="M0 0 C0.99 0 1.98 0 3 0 C1.69569529 6.877243 -0.42490317 13.21190757 -2.87890625 19.765625 C-3.83572516 22.52606424 -4.51908571 25.12532131 -5 28 C-6.32 26.68 -7.64 25.36 -9 24 C-8.74605469 23.3709375 -8.49210938 22.741875 -8.23046875 22.09375 C-7.14670922 19.39855776 -6.07289203 16.69953478 -5 14 C-4.69191406 13.23945312 -4.38382813 12.47890625 -4.06640625 11.6953125 C-2.68851904 8.20114877 -2 5.80951935 -2 2 C-1.34 2 -0.68 2 0 2 C0 1.34 0 0.68 0 0 Z " fill="#101010" transform="translate(188,58)"/>
<path d="M0 0 C0.721875 0.53625 1.44375 1.0725 2.1875 1.625 C4.93706631 3.35911051 4.93706631 3.35911051 7.8125 2.1875 C8.534375 1.795625 9.25625 1.40375 10 1 C10 1.66 10 2.32 10 3 C8.34467377 4.01866229 6.67739862 5.01810813 5 6 C3.64908472 8.70183055 3.66141942 11.11808206 3.4375 14.125 C3.35371094 15.22070312 3.26992187 16.31640625 3.18359375 17.4453125 C3.12300781 18.28835937 3.06242187 19.13140625 3 20 C1.68 20 0.36 20 -1 20 C-1.02888514 16.85418577 -1.04675923 13.70840531 -1.0625 10.5625 C-1.07087891 9.66466797 -1.07925781 8.76683594 -1.08789062 7.84179688 C-1.09111328 6.98779297 -1.09433594 6.13378906 -1.09765625 5.25390625 C-1.10551147 4.06776733 -1.10551147 4.06776733 -1.11352539 2.85766602 C-1 1 -1 1 0 0 Z " fill="#9D5C26" transform="translate(116,149)"/>
<path d="M0 0 C0.99 0.495 0.99 0.495 2 1 C3.81341842 1.08471364 5.62994161 1.10721083 7.4453125 1.09765625 C8.52167969 1.09443359 9.59804688 1.09121094 10.70703125 1.08789062 C12.39892578 1.07532227 12.39892578 1.07532227 14.125 1.0625 C15.82849609 1.05573242 15.82849609 1.05573242 17.56640625 1.04882812 C20.37765638 1.03701615 23.1888023 1.02054507 26 1 C26 2.65 26 4.3 26 6 C17.42 6 8.84 6 0 6 C0 4.02 0 2.04 0 0 Z " fill="#0C0C0C" transform="translate(54,123)"/>
<path d="M0 0 C17.19074687 -0.49127217 33.208274 0.1618912 50 4 C46.21586069 6.52275954 45.00635545 5.96451384 40.625 5.1875 C39.50351563 4.99542969 38.38203125 4.80335937 37.2265625 4.60546875 C35.38796678 4.26045381 33.55166646 3.90058419 31.7253418 3.49560547 C28.53596484 2.91561485 25.40275904 2.67859641 22.16796875 2.46484375 C20.87568359 2.37783203 19.58339844 2.29082031 18.25195312 2.20117188 C16.89714006 2.11320976 15.54232229 2.02532004 14.1875 1.9375 C12.81313092 1.84600494 11.43878168 1.75421115 10.06445312 1.66210938 C6.70981903 1.4384671 3.35501282 1.21787445 0 1 C0 0.67 0 0.34 0 0 Z " fill="#272727" transform="translate(122,4)"/>
<path d="M0 0 C1.65 0.33 3.3 0.66 5 1 C5 1.66 5 2.32 5 3 C5.99 3.33 6.98 3.66 8 4 C9.61328125 5.70703125 9.61328125 5.70703125 11.3125 7.8125 C14.27721459 11.32600219 17.04613337 13.68554148 21 16 C19.68 17.32 18.36 18.64 17 20 C16.5875 19.5153125 16.175 19.030625 15.75 18.53125 C8.50808417 9.2119496 8.50808417 9.2119496 -1 3 C-0.67 2.01 -0.34 1.02 0 0 Z " fill="#151515" transform="translate(74,65)"/>
<path d="M0 0 C9.24 0 18.48 0 28 0 C27.67 1.32 27.34 2.64 27 4 C25.04235617 4.19456705 23.08384679 4.38044247 21.125 4.5625 C20.03445312 4.66691406 18.94390625 4.77132812 17.8203125 4.87890625 C15 5 15 5 13 4 C10.795636 3.77049681 8.58607827 3.58924067 6.375 3.4375 C5.18648438 3.35371094 3.99796875 3.26992187 2.7734375 3.18359375 C1.40058594 3.09271484 1.40058594 3.09271484 0 3 C0 2.01 0 1.02 0 0 Z " fill="#111111" transform="translate(62,85)"/>
<path d="M0 0 C0.66 0 1.32 0 2 0 C2.33 1.65 2.66 3.3 3 5 C4.65 4.67 6.3 4.34 8 4 C8 4.66 8 5.32 8 6 C9.32 6.33 10.64 6.66 12 7 C9.3333581 8.33332095 7.83319697 7.67102033 5 7 C4.34 9.64 3.68 12.28 3 15 C0.69 13.02 -1.62 11.04 -4 9 C-3.34 7.68 -2.68 6.36 -2 5 C-1.32033324 3.33859237 -0.65061095 1.67299959 0 0 Z " fill="#E7E7E7" transform="translate(189,106)"/>
<path d="M0 0 C0.33 0.99 0.66 1.98 1 3 C0.67 3.66 0.34 4.32 0 5 C0.68707031 5.12117187 1.37414062 5.24234375 2.08203125 5.3671875 C3.43361328 5.61855469 3.43361328 5.61855469 4.8125 5.875 C5.70582031 6.03742188 6.59914062 6.19984375 7.51953125 6.3671875 C10 7 10 7 13 9 C13 10.32 13 11.64 13 13 C8.34755986 15.32622007 1.9262419 13.98524838 -3 13 C-2.67 12.34 -2.34 11.68 -2 11 C5.42857143 10.71428571 5.42857143 10.71428571 9 13 C8.67 11.35 8.34 9.7 8 8 C4.37 8 0.74 8 -3 8 C-1.125 1.125 -1.125 1.125 0 0 Z " fill="#4C2625" transform="translate(181,159)"/>
<path d="M0 0 C0.66 0.33 1.32 0.66 2 1 C1.236875 1.721875 0.47375 2.44375 -0.3125 3.1875 C-2.99114208 5.76958746 -2.99114208 5.76958746 -4.375 8.375 C-5.8890394 10.82075595 -7.32351528 12.39425614 -9.375 14.375 C-12.76685711 17.65163479 -15.36816927 21.09213013 -18 25 C-18.99 24.34 -19.98 23.68 -21 23 C-14.70530324 14.57537564 -7.52305743 7.31663207 0 0 Z " fill="#B2B2B2" transform="translate(52,37)"/>
<path d="M0 0 C3.56334257 5.34501386 2.01378848 11.91726909 1 18 C2.32 18 3.64 18 5 18 C5.33 17.01 5.66 16.02 6 15 C6.66 16.32 7.32 17.64 8 19 C6.35 19.33 4.7 19.66 3 20 C5.12780579 22.34058637 7.11562221 23.70700306 10 25 C8.7625 25.04125 7.525 25.0825 6.25 25.125 C5.55390625 25.14820313 4.8578125 25.17140625 4.140625 25.1953125 C2 25 2 25 -2 23 C-1.34 15.41 -0.68 7.82 0 0 Z " fill="#4B2611" transform="translate(114,151)"/>
<path d="M0 0 C0 3 0 3 -1.8984375 5.12109375 C-2.71570313 5.88550781 -3.53296875 6.64992187 -4.375 7.4375 C-7.62931804 10.37771874 -7.62931804 10.37771874 -9.9375 14.01953125 C-11.52401674 16.9767518 -13.89755541 18.34713168 -16.625 20.25 C-17.62789062 20.95640625 -18.63078125 21.6628125 -19.6640625 22.390625 C-20.43492187 22.92171875 -21.20578125 23.4528125 -22 24 C-22.99 23.34 -23.98 22.68 -25 22 C-24.56244385 21.65332275 -24.1248877 21.30664551 -23.67407227 20.94946289 C-15.36118356 14.34088571 -7.24754899 7.79111516 0 0 Z " fill="#B7B7B7" transform="translate(236,223)"/>
<path d="M0 0 C1.32 0.66 2.64 1.32 4 2 C4.33 1.34 4.66 0.68 5 0 C5 1.32 5 2.64 5 4 C3.70264493 5.04625409 2.36733028 6.04701223 1 7 C0.67 7.99 0.34 8.98 0 10 C0.99 10 1.98 10 3 10 C3 9.01 3 8.02 3 7 C3.66 7.33 4.32 7.66 5 8 C5 9.32 5 10.64 5 12 C-3.91 12 -12.82 12 -22 12 C-19.19138713 9.19138713 -17.10598569 9.59656882 -13.1875 9.375 C-11.96417969 9.30023438 -10.74085938 9.22546875 -9.48046875 9.1484375 C-6.64642298 9.02756911 -3.83565835 8.96759248 -1 9 C-0.67 6.03 -0.34 3.06 0 0 Z " fill="#4D3129" transform="translate(148,163)"/>
<path d="M0 0 C0.721875 0.165 1.44375 0.33 2.1875 0.5 C1.63437265 4.52992782 1.0316938 8.52022924 0.1875 12.5 C-2.16421131 11.90138258 -4.4984378 11.23075648 -6.8125 10.5 C-7.1425 9.84 -7.4725 9.18 -7.8125 8.5 C-6.12077766 4.48820131 -4.45549388 0.7920878 0 0 Z " fill="#D65A55" transform="translate(126.8125,101.5)"/>
<path d="M0 0 C0 0.33 0 0.66 0 1 C-1.88332031 1.29003906 -1.88332031 1.29003906 -3.8046875 1.5859375 C-5.49485366 1.84855968 -7.18495364 2.11160799 -8.875 2.375 C-10.18041748 2.57754395 -10.18041748 2.57754395 -11.51220703 2.78417969 C-16.71840242 3.60339414 -21.86853235 4.51779755 -26.9921875 5.765625 C-29.4993922 6.05829481 -31.56189689 5.5946593 -34 5 C-24.23706008 -1.50862661 -11.216484 -0.33989345 0 0 Z " fill="#A0A0A0" transform="translate(133,7)"/>
<path d="M0 0 C0 3.96 0 7.92 0 12 C-2.64 11.01 -5.28 10.02 -8 9 C-7.67 6.36 -7.34 3.72 -7 1 C-1.125 0 -1.125 0 0 0 Z " fill="#DBCFBE" transform="translate(182,137)"/>
<path d="M0 0 C1.05711427 3.19957435 0.95184778 4.96645088 -0.21484375 8.109375 C-0.48876953 8.86347656 -0.76269531 9.61757813 -1.04492188 10.39453125 C-1.33947266 11.17183594 -1.63402344 11.94914062 -1.9375 12.75 C-2.22818359 13.54277344 -2.51886719 14.33554687 -2.81835938 15.15234375 C-3.53594814 17.10512629 -4.26670906 19.05305941 -5 21 C-6.65 20.67 -8.3 20.34 -10 20 C-8.7192029 16.84963077 -7.42357064 13.70558015 -6.125 10.5625 C-5.57779297 9.21575195 -5.57779297 9.21575195 -5.01953125 7.84179688 C-4.66503906 6.98779297 -4.31054688 6.13378906 -3.9453125 5.25390625 C-3.45828857 4.06776733 -3.45828857 4.06776733 -2.96142578 2.85766602 C-2 1 -2 1 0 0 Z " fill="#141414" transform="translate(164,47)"/>
<path d="M0 0 C2.0625 1.75 2.0625 1.75 4 4 C3.8125 6.0625 3.8125 6.0625 3 8 C2.67 8.99 2.34 9.98 2 11 C-2.455 11.495 -2.455 11.495 -7 12 C-6.34 10.68 -5.68 9.36 -5 8 C-3.35 8 -1.7 8 0 8 C0 7.34 0 6.68 0 6 C-1.32 6 -2.64 6 -4 6 C-2.84826645 3.53199953 -1.95216435 1.95216435 0 0 Z " fill="#D45C56" transform="translate(145,161)"/>
<path d="M0 0 C1.65 0.33 3.3 0.66 5 1 C5 2.32 5 3.64 5 5 C3.35 5 1.7 5 0 5 C0 5.99 0 6.98 0 8 C0.66 8.33 1.32 8.66 2 9 C1.01 9 0.02 9 -1 9 C-0.34 10.32 0.32 11.64 1 13 C-3 11 -3 11 -4.875 9.8125 C-7.82134214 8.68595742 -9.97903796 9.31341772 -13 10 C-11 8 -11 8 -8 7 C-7.34 6.34 -6.68 5.68 -6 5 C-5.01 5.33 -4.02 5.66 -3 6 C-3.33 5.01 -3.66 4.02 -4 3 C-2.35 3 -0.7 3 1 3 C0.67 2.01 0.34 1.02 0 0 Z " fill="#73411D" transform="translate(123,132)"/>
<path d="M0 0 C1.65 0 3.3 0 5 0 C4.34 0.825 3.68 1.65 3 2.5 C0.38765874 6.34492481 0.68665866 9.45655064 1 14 C0.01 14.33 -0.98 14.66 -2 15 C-2.99 16.485 -2.99 16.485 -4 18 C-4.03867188 16.87851563 -4.03867188 16.87851563 -4.078125 15.734375 C-4.28686884 9.59307795 -4.28686884 9.59307795 -7.0625 4.3125 C-7.701875 3.879375 -8.34125 3.44625 -9 3 C-7.824375 3.495 -7.824375 3.495 -6.625 4 C-4.15667503 5.11866511 -4.15667503 5.11866511 -2 5 C-1.34 3.35 -0.68 1.7 0 0 Z " fill="#564848" transform="translate(194,113)"/>
<path d="M0 0 C1.2065625 0.0309375 1.2065625 0.0309375 2.4375 0.0625 C2.4375 4.0625 2.4375 4.0625 1.4375 7.0625 C4.40815509 6.72022428 4.40815509 6.72022428 7.4375 6.0625 C7.7675 5.4025 8.0975 4.7425 8.4375 4.0625 C9.0975 4.0625 9.7575 4.0625 10.4375 4.0625 C10.4375 5.0525 10.4375 6.0425 10.4375 7.0625 C5.88353969 9.77319066 3.56876572 10.26343453 -1.5625 9.0625 C-3.22877298 9.02627667 -4.89655374 9.01350158 -6.5625 9.0625 C-6.5625 8.0725 -6.5625 7.0825 -6.5625 6.0625 C-4.5825 6.5575 -4.5825 6.5575 -2.5625 7.0625 C-2.748125 6.093125 -2.93375 5.12375 -3.125 4.125 C-3.269375 3.114375 -3.41375 2.10375 -3.5625 1.0625 C-2.5625 0.0625 -2.5625 0.0625 0 0 Z " fill="#5D3114" transform="translate(104.5625,128.9375)"/>
<path d="M0 0 C0.66 0.33 1.32 0.66 2 1 C-3.13797982 6.26373457 -9.06898959 10.07247276 -15.3125 13.875 C-16.11349121 14.36331299 -16.91448242 14.85162598 -17.73974609 15.35473633 C-23.57630607 18.85876869 -23.57630607 18.85876869 -27 20 C-27.33 19.34 -27.66 18.68 -28 18 C-26.98421875 17.45472656 -25.9684375 16.90945312 -24.921875 16.34765625 C-16.03921499 11.50699613 -7.90085134 6.32965931 0 0 Z " fill="#161616" transform="translate(221,235)"/>
<path d="M0 0 C2.5 0.25 2.5 0.25 4.5 2.25 C3.94444444 6.80555556 3.94444444 6.80555556 2.5 8.25 C0.50041636 8.29080783 -1.50045254 8.29254356 -3.5 8.25 C-4.125 5.375 -4.125 5.375 -4.5 2.25 C-2.5 0.25 -2.5 0.25 0 0 Z " fill="#332117" transform="translate(114.5,118.75)"/>
<path d="M0 0 C0 1.32 0 2.64 0 4 C-2.07914664 4.70005949 -4.16351586 5.38462244 -6.25 6.0625 C-7.41015625 6.44535156 -8.5703125 6.82820313 -9.765625 7.22265625 C-12.80077085 7.95211763 -14.15703213 8.11889082 -17 7 C-15.35 6.67 -13.7 6.34 -12 6 C-12 4.68 -12 3.36 -12 2 C-10.56656 1.46809459 -9.12804633 0.94984742 -7.6875 0.4375 C-6.48673828 0.00244141 -6.48673828 0.00244141 -5.26171875 -0.44140625 C-3 -1 -3 -1 0 0 Z " fill="#626262" transform="translate(214,89)"/>
<path d="M0 0 C3.53571429 0.53571429 3.53571429 0.53571429 5 2 C4.71269945 4.33944736 4.38063221 6.6739143 4 9 C3 6 3 6 4 3 C0.11078647 4.47521893 -1.2490848 6.25940843 -3 10 C-3.80414701 12.97684234 -4.43864466 15.96868115 -5 19 C-5.33 19 -5.66 19 -6 19 C-6.55428226 12.34861284 -5.69455091 7.62272894 -2 2 C-1.34 1.34 -0.68 0.68 0 0 Z " fill="#795535" transform="translate(143,120)"/>
<path d="M0 0 C1.17433594 0.29261719 2.34867188 0.58523438 3.55859375 0.88671875 C9.38526704 2.25414156 15.02904421 3.17549885 20.99609375 3.57421875 C20.99609375 3.90421875 20.99609375 4.23421875 20.99609375 4.57421875 C11.29061028 6.46596553 3.2645432 4.28381564 -6.00390625 1.57421875 C-3.00390625 -0.42578125 -3.00390625 -0.42578125 0 0 Z " fill="#2B2B2B" transform="translate(105.00390625,261.42578125)"/>
<path d="M0 0 C2.33453262 2.9579983 4.1655435 5.98949404 5.9375 9.3125 C8.23137888 13.57991557 10.57631896 17.80516743 13 22 C12.01 22 11.02 22 10 22 C8.29099674 19.67035871 6.8259403 17.4204801 5.375 14.9375 C4.96765625 14.28072266 4.5603125 13.62394531 4.140625 12.94726562 C1.53698332 8.57194062 0.38318734 5.08053562 0 0 Z " fill="#242424" transform="translate(19,191)"/>
<path d="M0 0 C4.875 1.875 4.875 1.875 6 3 C6.07226502 4.85287502 6.0838122 6.70833878 6.0625 8.5625 C6.05347656 9.57441406 6.04445312 10.58632812 6.03515625 11.62890625 C6.02355469 12.41136719 6.01195312 13.19382813 6 14 C3.69 13.34 1.38 12.68 -1 12 C0 9 0 9 3 7 C2.72382467 5.05925139 2.72382467 5.05925139 2 3 C1.01 2.34 0.02 1.68 -1 1 C-0.67 0.67 -0.34 0.34 0 0 Z " fill="#CD5A57" transform="translate(184,117)"/>
<path d="M0 0 C0.556875 0.185625 1.11375 0.37125 1.6875 0.5625 C4.399133 1.07551165 6.34371039 0.6640724 9 0 C8.67 0.66 8.34 1.32 8 2 C8.33 2.33 8.66 2.66 9 3 C9 4.32 9 5.64 9 7 C8.2575 6.814375 7.515 6.62875 6.75 6.4375 C4.05009037 6.00796892 2.55368923 6.14877026 0 7 C0 4.69 0 2.38 0 0 Z " fill="#E2B2AF" transform="translate(171,183)"/>
<path d="M0 0 C0.99 0.33 1.98 0.66 3 1 C2.34 1 1.68 1 1 1 C1 1.66 1 2.32 1 3 C1.99 2.67 2.98 2.34 4 2 C4.33 1.34 4.66 0.68 5 0 C6.32 0 7.64 0 9 0 C9 2.31 9 4.62 9 7 C6.03 7 3.06 7 0 7 C0 4.69 0 2.38 0 0 Z " fill="#E3BCB9" transform="translate(71,183)"/>
<path d="M0 0 C3.3 0 6.6 0 10 0 C10 1.32 10 2.64 10 4 C9.34 4 8.68 4 8 4 C8 4.99 8 5.98 8 7 C7.01 7 6.02 7 5 7 C5 6.01 5 5.02 5 4 C3.68 4 2.36 4 1 4 C0.67 4.99 0.34 5.98 0 7 C0 4.69 0 2.38 0 0 Z " fill="#E5B1AD" transform="translate(200,183)"/>
<path d="M0 0 C3.5 0.875 3.5 0.875 5.4375 2.0625 C6.97273259 4.68142619 6.6980568 6.90414805 6.5 9.875 C5.51 10.37 5.51 10.37 4.5 10.875 C4.025625 9.905625 3.55125 8.93625 3.0625 7.9375 C1.79806053 5.07022563 1.79806053 5.07022563 0.5 3.875 C-1.82817964 3.50739269 -4.1618385 3.17258419 -6.5 2.875 C-4.47898295 -0.09708389 -3.69284165 -0.1318872 0 0 Z " fill="#1D1D1D" transform="translate(86.5,58.125)"/>
<path d="M0 0 C5.89691239 0.53668529 10.87300303 1.78521788 16.375 3.9375 C17.44041016 4.33485352 17.44041016 4.33485352 18.52734375 4.74023438 C23.72916667 6.72916667 23.72916667 6.72916667 26 9 C19.94114192 8.41631082 14.72641954 6.61261739 9.0625 4.4375 C8.18787109 4.10814453 7.31324219 3.77878906 6.41210938 3.43945312 C4.27225191 2.63262162 2.13508136 1.81936819 0 1 C0 0.67 0 0.34 0 0 Z " fill="#191919" transform="translate(169,9)"/>
<path d="M0 0 C0.33 0 0.66 0 1 0 C3.05824142 10.15697395 0.5157129 19.18548058 -2 29 C-2.66 28.67 -3.32 28.34 -4 28 C-3.87882812 27.319375 -3.75765625 26.63875 -3.6328125 25.9375 C-2.14323803 17.32088462 -1.0354433 8.68009914 0 0 Z " fill="#303030" transform="translate(266,144)"/>
<path d="M0 0 C0.33 0 0.66 0 1 0 C1.05398987 2.27057377 1.09278742 4.54151288 1.125 6.8125 C1.14820312 8.07707031 1.17140625 9.34164062 1.1953125 10.64453125 C1 14 1 14 -1 17 C-1.66 17 -2.32 17 -3 17 C-3 16.01 -3 15.02 -3 14 C-3.66 14 -4.32 14 -5 14 C-5.33 9.71 -5.66 5.42 -6 1 C-5.34 1 -4.68 1 -4 1 C-3.95101562 1.63808594 -3.90203125 2.27617187 -3.8515625 2.93359375 C-3.77679688 3.75988281 -3.70203125 4.58617187 -3.625 5.4375 C-3.55539063 6.26121094 -3.48578125 7.08492187 -3.4140625 7.93359375 C-3.27742188 8.61550781 -3.14078125 9.29742187 -3 10 C-2.34 10.33 -1.68 10.66 -1 11 C-0.67 7.37 -0.34 3.74 0 0 Z " fill="#6C472F" transform="translate(106,152)"/>
<path d="M0 0 C0.33 0 0.66 0 1 0 C1 3 1 6 1 9 C0.01 9.495 0.01 9.495 -1 10 C-0.67 10.66 -0.34 11.32 0 12 C-4.75 10.125 -4.75 10.125 -7 9 C-7 8.01 -7 7.02 -7 6 C-6.401875 5.7525 -5.80375 5.505 -5.1875 5.25 C-2.71323572 3.8361347 -1.61671451 2.30959216 0 0 Z " fill="#A4642C" transform="translate(130,131)"/>
<path d="M0 0 C0.33 1.32 0.66 2.64 1 4 C-1.475 5.485 -1.475 5.485 -4 7 C-4 6.34 -4 5.68 -4 5 C-5.32 4.67 -6.64 4.34 -8 4 C-7.625 2.0625 -7.625 2.0625 -7 0 C-4.3333581 -1.33332095 -2.83319697 -0.67102033 0 0 Z " fill="#1C0808" transform="translate(187,120)"/>
<path d="M0 0 C7.22891566 -0.48192771 7.22891566 -0.48192771 10.5 1.5625 C12.50478781 4.82028019 12.28862859 7.24782833 12 11 C10.68 11.33 9.36 11.66 8 12 C8.0825 11.0925 8.165 10.185 8.25 9.25 C8.29709715 5.95515515 8.29709715 5.95515515 6.25 3.75 C4.21669523 2.16854073 2.36066727 1.01171454 0 0 Z " fill="#232323" transform="translate(102,45)"/>
<path d="M0 0 C8.8802007 -0.31715003 16.2965072 1.94994445 24.5 5.125 C25.59054688 5.54072266 25.59054688 5.54072266 26.703125 5.96484375 C28.47030687 6.63916315 30.23538366 7.31899515 32 8 C28.63964942 9.12011686 28.0578607 8.91362649 24.875 7.75 C24.07578125 7.46769531 23.2765625 7.18539063 22.453125 6.89453125 C21.64359375 6.59933594 20.8340625 6.30414062 20 6 C13.40694651 3.60358871 6.93161975 2.10128538 0 1 C0 0.67 0 0.34 0 0 Z " fill="#A9A9A9" transform="translate(158,9)"/>
<path d="M0 0 C0.33 0.66 0.66 1.32 1 2 C1.66 2.33 2.32 2.66 3 3 C2.67 4.98 2.34 6.96 2 9 C3.65 9 5.3 9 7 9 C7.33 10.65 7.66 12.3 8 14 C7.01 14.33 6.02 14.66 5 15 C4.67 14.34 4.34 13.68 4 13 C3.34 13 2.68 13 2 13 C2 12.34 2 11.68 2 11 C1.505 10.608125 1.01 10.21625 0.5 9.8125 C-1.81359649 7.01690425 -1.2589023 4.49518108 -1 1 C-0.67 0.67 -0.34 0.34 0 0 Z " fill="#D18135" transform="translate(85,122)"/>
<path d="M0 0 C0.99 0 1.98 0 3 0 C2.15707794 2.52876619 1.24590966 4.34583479 -0.0625 6.625 C-2.37685574 11.12003028 -2.41351257 15.03784912 -2 20 C-0.68 20.33 0.64 20.66 2 21 C1.34 21 0.68 21 0 21 C-0.33 21.66 -0.66 22.32 -1 23 C-2.98 23 -4.96 23 -7 23 C-7 22.34 -7 21.68 -7 21 C-5.68 21 -4.36 21 -3 21 C-3.33 20.34 -3.66 19.68 -4 19 C-4.83734079 11.73847081 -3.44885374 6.37422076 0 0 Z " fill="#4F372A" transform="translate(87,112)"/>
<path d="M0 0 C4 2 4 2 6 5 C6 5.99 6 6.98 6 8 C5.34 8 4.68 8 4 8 C3.67 8.99 3.34 9.98 3 11 C2.01 11 1.02 11 0 11 C0 7.37 0 3.74 0 0 Z " fill="#DE5A54" transform="translate(86,102)"/>
<path d="M0 0 C3.63 0 7.26 0 11 0 C10.01 2.31 9.02 4.62 8 7 C4.2047869 5.50902342 2.38957269 3.24299151 0 0 Z " fill="#FBFBFB" transform="translate(66,89)"/>
<path d="M0 0 C2.875 -0.125 2.875 -0.125 6 0 C8 2 8 2 8.23046875 4.56640625 C8.20919922 6.04947266 8.20919922 6.04947266 8.1875 7.5625 C8.17783203 9.04943359 8.17783203 9.04943359 8.16796875 10.56640625 C8 13 8 13 7 14 C5.00041636 14.04080783 2.99954746 14.04254356 1 14 C1.66 13.505 2.32 13.01 3 12.5 C5.8827217 8.89659788 5.30200997 6.53014958 5 2 C3.35 1.67 1.7 1.34 0 1 C0 0.67 0 0.34 0 0 Z " fill="#6F6F6F" transform="translate(211,116)"/>
<path d="M0 0 C1.67542976 0.28604898 3.34385343 0.61781233 5 1 C5 2.65 5 4.3 5 6 C2.625 6.625 2.625 6.625 0 7 C-0.66 6.34 -1.32 5.68 -2 5 C-1.46428571 1.46428571 -1.46428571 1.46428571 0 0 Z " fill="#806B6A" transform="translate(165,114)"/>
<path d="M0 0 C-1.58667578 3.90285767 -4.13350481 6.33520982 -7.125 9.25 C-8.03507812 10.14203125 -8.94515625 11.0340625 -9.8828125 11.953125 C-10.58148438 12.62859375 -11.28015625 13.3040625 -12 14 C-12.99 13.67 -13.98 13.34 -15 13 C-12.88094537 10.82722286 -10.75527122 8.66173092 -8.625 6.5 C-8.02171875 5.87996094 -7.4184375 5.25992188 -6.796875 4.62109375 C-6.21679688 4.03457031 -5.63671875 3.44804688 -5.0390625 2.84375 C-4.50490723 2.29912109 -3.97075195 1.75449219 -3.42041016 1.19335938 C-2 0 -2 0 0 0 Z " fill="#262626" transform="translate(52,36)"/>
<path d="M0 0 C0.99 0.33 1.98 0.66 3 1 C-1.29 5.29 -5.58 9.58 -10 14 C-10.66 13.34 -11.32 12.68 -12 12 C-8.04 8.04 -4.08 4.08 0 0 Z " fill="#2A2A2A" transform="translate(234,222)"/>
<path d="M0 0 C0.66 0 1.32 0 2 0 C1.85890014 2.10448938 1.71195825 4.2085877 1.5625 6.3125 C1.48128906 7.48425781 1.40007812 8.65601563 1.31640625 9.86328125 C1 13 1 13 0 16 C-0.99 16 -1.98 16 -3 16 C-2.01 10.72 -1.02 5.44 0 0 Z " fill="#9B9B9B" transform="translate(268,151)"/>
<path d="M0 0 C1.02826931 3.13667908 0.99386675 4.83184742 -0.21484375 7.890625 C-0.48876953 8.59960938 -0.76269531 9.30859375 -1.04492188 10.0390625 C-1.33947266 10.76867187 -1.63402344 11.49828125 -1.9375 12.25 C-2.37352539 13.36761719 -2.37352539 13.36761719 -2.81835938 14.5078125 C-3.53573722 16.34241814 -4.26657439 18.17175065 -5 20 C-5.66 19.67 -6.32 19.34 -7 19 C-4.94235079 12.54646385 -2.57616518 6.2638737 0 0 Z " fill="#222222" transform="translate(262,172)"/>
<path d="M0 0 C2.31 0 4.62 0 7 0 C6.01 0.495 6.01 0.495 5 1 C5 1.66 5 2.32 5 3 C5.66 3.33 6.32 3.66 7 4 C7 4.99 7 5.98 7 7 C5.68 7 4.36 7 3 7 C2.67 6.34 2.34 5.68 2 5 C1.01 5.66 0.02 6.32 -1 7 C-0.67 4.69 -0.34 2.38 0 0 Z " fill="#E3B2AF" transform="translate(102,183)"/>
<path d="M0 0 C0.66 0.33 1.32 0.66 2 1 C2.40729228 3.32156597 2.74438677 5.6568787 3 8 C2.01 8.66 1.02 9.32 0 10 C-0.73343428 13.06556598 -0.73343428 13.06556598 -1 16 C-1.33 16 -1.66 16 -2 16 C-2.33 11.38 -2.66 6.76 -3 2 C-2.34 2.66 -1.68 3.32 -1 4 C-0.67 2.68 -0.34 1.36 0 0 Z " fill="#7D4621" transform="translate(142,147)"/>
<path d="M0 0 C0.99 0 1.98 0 3 0 C3 1.65 3 3.3 3 5 C2.01 4.67 1.02 4.34 0 4 C0.52480001 10.28908482 0.52480001 10.28908482 3 16 C1.35 14.35 -0.3 12.7 -2 11 C-1.67 10.34 -1.34 9.68 -1 9 C-1.66 8.67 -2.32 8.34 -3 8 C-1.125 1.125 -1.125 1.125 0 0 Z " fill="#361915" transform="translate(133,128)"/>
<path d="M0 0 C0.66 0.33 1.32 0.66 2 1 C2 1.99 2 2.98 2 4 C0 5 0 5 -2.4375 5.375 C-5.27193971 6.06632676 -6.08400079 6.90152468 -8 9 C-8.66 9 -9.32 9 -10 9 C-10 8.34 -10 7.68 -10 7 C-10.66 7 -11.32 7 -12 7 C-12 6.34 -12 5.68 -12 5 C-11.30132812 4.72285156 -10.60265625 4.44570312 -9.8828125 4.16015625 C-8.97273437 3.79792969 -8.06265625 3.43570313 -7.125 3.0625 C-6.22007812 2.70285156 -5.31515625 2.34320313 -4.3828125 1.97265625 C-2.03862333 1.05098738 -2.03862333 1.05098738 0 0 Z " fill="#848484" transform="translate(177,64)"/>
<path d="M0 0 C0 2.64 0 5.28 0 8 C-1.8125 8.625 -1.8125 8.625 -4 9 C-4.99 8.34 -5.98 7.68 -7 7 C-5.80061288 4.10148113 -3.63852862 0 0 0 Z " fill="#973E3B" transform="translate(161,167)"/>
<path d="M0 0 C2.97 0.495 2.97 0.495 6 1 C5.67 3.97 5.34 6.94 5 10 C2 8 2 8 1.3125 4.875 C1.209375 3.92625 1.10625 2.9775 1 2 C0.67 2.66 0.34 3.32 0 4 C-0.66 4 -1.32 4 -2 4 C-1.34 2.68 -0.68 1.36 0 0 Z " fill="#C8BEB0" transform="translate(89,139)"/>
<path d="M0 0 C0.598125 0.185625 1.19625 0.37125 1.8125 0.5625 C4.16408762 1.22093687 4.16408762 1.22093687 7 0 C6.44225728 3.23490776 5.62788492 4.97855006 3 7 C2.01 7 1.02 7 0 7 C0 4.69 0 2.38 0 0 Z " fill="#E5B7B4" transform="translate(94,183)"/>
<path d="M0 0 C0.66 0 1.32 0 2 0 C3.39589947 1.55003004 4.71887019 3.16634239 6 4.8125 C6.70125 5.70582031 7.4025 6.59914062 8.125 7.51953125 C9.47413942 9.30433028 10.75894775 11.13842162 12 13 C11.01 13 10.02 13 9 13 C6.73828125 10.6640625 6.73828125 10.6640625 4.3125 7.625 C3.10013672 6.12839844 3.10013672 6.12839844 1.86328125 4.6015625 C0 2 0 2 0 0 Z " fill="#1B1B1B" transform="translate(31,213)"/>
<path d="M0 0 C1.23556641 0.01740234 1.23556641 0.01740234 2.49609375 0.03515625 C3.32238281 0.04417969 4.14867188 0.05320313 5 0.0625 C5.63808594 0.07410156 6.27617188 0.08570313 6.93359375 0.09765625 C6.93359375 0.75765625 6.93359375 1.41765625 6.93359375 2.09765625 C5.61359375 2.42765625 4.29359375 2.75765625 2.93359375 3.09765625 C4.25359375 3.42765625 5.57359375 3.75765625 6.93359375 4.09765625 C6.93359375 4.75765625 6.93359375 5.41765625 6.93359375 6.09765625 C0.41051683 5.60534856 0.41051683 5.60534856 -2.00390625 3.03515625 C-2.52984375 2.07609375 -2.52984375 2.07609375 -3.06640625 1.09765625 C-2.06640625 0.09765625 -2.06640625 0.09765625 0 0 Z " fill="#AC6C33" transform="translate(119.06640625,169.90234375)"/>
<path d="M0 0 C-1.0502964 3.38428841 -2.05324631 4.02867109 -5.25 5.75 C-8.80534972 6.93511657 -11.29682186 7.27096425 -15 7 C-15 6.34 -15 5.68 -15 5 C-11.7 4.67 -8.4 4.34 -5 4 C-5 3.01 -5 2.02 -5 1 C-3 0 -3 0 0 0 Z " fill="#6E3937" transform="translate(190,131)"/>
<path d="M0 0 C0.66 0.66 1.32 1.32 2 2 C1.76924706 4.72288471 1.44381281 7.31300291 1 10 C0.80993301 11.33296983 0.62221107 12.66627745 0.4375 14 C0.293125 14.99 0.14875 15.98 0 17 C-1.83166003 13.91214401 -2.19090024 12.04199685 -1.6875 8.5 C-1.58824219 7.7471875 -1.48898438 6.994375 -1.38671875 6.21875 C-1.01948342 4.11178366 -0.54942434 2.06621118 0 0 Z " fill="#373737" transform="translate(9,101)"/>
<path d="M0 0 C0.125 2.875 0.125 2.875 0 6 C-0.66 6.66 -1.32 7.32 -2 8 C-1.67 5.69 -1.34 3.38 -1 1 C-2.65 1 -4.3 1 -6 1 C-6.66 2.32 -7.32 3.64 -8 5 C-8.33 4.34 -8.66 3.68 -9 3 C-9.66 2.67 -10.32 2.34 -11 2 C-6.97107804 -0.96244261 -4.82799816 -1.2350693 0 0 Z " fill="#532E23" transform="translate(130,101)"/>
<path d="M0 0 C-0.33 2.97 -0.66 5.94 -1 9 C-1.99 9.33 -2.98 9.66 -4 10 C-4 8.35 -4 6.7 -4 5 C-4.66 4.67 -5.32 4.34 -6 4 C-2.25 0 -2.25 0 0 0 Z " fill="#925427" transform="translate(121,104)"/>
<path d="M0 0 C-0.33 0.99 -0.66 1.98 -1 3 C-5.62 3 -10.24 3 -15 3 C-12.53623898 0.53623898 -11.46594406 0.64487662 -8.0625 0.375 C-6.74958984 0.26285156 -6.74958984 0.26285156 -5.41015625 0.1484375 C-3.609504 0.03753833 -1.80406406 0 0 0 Z " fill="#959595" transform="translate(159,266)"/>
<path d="M0 0 C1.89692143 0.45380895 3.79249595 0.91324992 5.6875 1.375 C6.74324219 1.63023437 7.79898438 1.88546875 8.88671875 2.1484375 C11.70406766 2.91905489 14.31668325 3.85498543 17 5 C17 5.66 17 6.32 17 7 C13.26915971 6.33961404 9.81602029 5.33952078 6.25 4.0625 C5.28578125 3.72347656 4.3215625 3.38445312 3.328125 3.03515625 C1 2 1 2 0 0 Z " fill="#ADADAD" transform="translate(85,258)"/>
<path d="M0 0 C3.50755794 3.50755794 4.125 7.5605227 4.125 12.375 C4.08375 13.57125 4.0425 14.7675 4 16 C3.34 16 2.68 16 2 16 C1.34 10.72 0.68 5.44 0 0 Z " fill="#B3B3B3" transform="translate(266,105)"/>
<path d="M0 0 C0.33 0 0.66 0 1 0 C0.54996653 5.62541841 -0.68441485 8.61487125 -4 13 C-4.99 12.01 -5.98 11.02 -7 10 C-3.25 5.125 -3.25 5.125 -1 4 C-0.34786708 1.97536745 -0.34786708 1.97536745 0 0 Z " fill="#A5A5A5" transform="translate(93,64)"/>
<path d="M0 0 C0.66 0.33 1.32 0.66 2 1 C0.8553125 2.0828125 0.8553125 2.0828125 -0.3125 3.1875 C-2.71854872 5.70545796 -4.26172335 8.02009717 -6 11 C-6.99 11.495 -6.99 11.495 -8 12 C-8.66 11.34 -9.32 10.68 -10 10 C-6.7 6.7 -3.4 3.4 0 0 Z " fill="#BCBCBC" transform="translate(52,37)"/>
<path d="M0 0 C1.65 0 3.3 0 5 0 C5 2.31 5 4.62 5 7 C3.35 7 1.7 7 0 7 C0 4.69 0 2.38 0 0 Z " fill="#DA8E8A" transform="translate(57,183)"/>
<path d="M0 0 C1.2065625 0.0309375 1.2065625 0.0309375 2.4375 0.0625 C2.4375 1.3825 2.4375 2.7025 2.4375 4.0625 C0.4575 5.0525 0.4575 5.0525 -1.5625 6.0625 C-2.2225 4.4125 -2.8825 2.7625 -3.5625 1.0625 C-2.5625 0.0625 -2.5625 0.0625 0 0 Z " fill="#773529" transform="translate(104.5625,128.9375)"/>
<path d="M0 0 C1.32 0 2.64 0 4 0 C4 2.31 4 4.62 4 7 C2.68 7 1.36 7 0 7 C0 4.69 0 2.38 0 0 Z " fill="#E3A29F" transform="translate(187,183)"/>
<path d="M0 0 C0 0.66 0 1.32 0 2 C-3.96 3.98 -7.92 5.96 -12 8 C-12.33 7.34 -12.66 6.68 -13 6 C-11.21118264 4.99491199 -9.41885304 3.99607264 -7.625 3 C-6.62726563 2.443125 -5.62953125 1.88625 -4.6015625 1.3125 C-2 0 -2 0 0 0 Z " fill="#1C1C1C" transform="translate(206,247)"/>
<path d="M0 0 C0.33 0.66 0.66 1.32 1 2 C1.66 2 2.32 2 3 2 C3.66 4.97 4.32 7.94 5 11 C3 11 3 11 1.375 9.4375 C-0.45512039 6.19319567 -0.21131282 3.66275561 0 0 Z " fill="#BD5853" transform="translate(133,133)"/>
<path d="M0 0 C4.42580434 5.63284189 5.23709676 8.88709728 5 16 C3.53508849 13.20392978 2.37754078 10.42993234 1.375 7.4375 C1.11460937 6.67308594 0.85421875 5.90867187 0.5859375 5.12109375 C0 3 0 3 0 0 Z " fill="#A8A8A8" transform="translate(261,89)"/>
<path d="M0 0 C1.65 0 3.3 0 5 0 C4.67 2.31 4.34 4.62 4 7 C2.66666667 7 1.33333333 7 0 7 C0 4.69 0 2.38 0 0 Z " fill="#CF7C78" transform="translate(156,183)"/>
<path d="M0 0 C2.70608417 1.35304209 2.96183047 2.80966544 4.125 5.5625 C4.47820312 6.38878906 4.83140625 7.21507812 5.1953125 8.06640625 C5.46085937 8.70449219 5.72640625 9.34257812 6 10 C4.125 9.6875 4.125 9.6875 2 9 C-0.29013653 5.5647952 -0.17842973 4.014669 0 0 Z " fill="#E1D6C8" transform="translate(91,164)"/>
<path d="M0 0 C1.65 0.33 3.3 0.66 5 1 C5 2.32 5 3.64 5 5 C2.36 5.33 -0.28 5.66 -3 6 C-3.33 5.01 -3.66 4.02 -4 3 C-2.35 3 -0.7 3 1 3 C0.67 2.01 0.34 1.02 0 0 Z " fill="#472411" transform="translate(123,132)"/>
<path d="M0 0 C0.99 0.33 1.98 0.66 3 1 C2.814375 1.61875 2.62875 2.2375 2.4375 2.875 C1.76313824 5.04160178 1.76313824 5.04160178 3 7 C1.35 6.67 -0.3 6.34 -2 6 C-2 4.35 -2 2.7 -2 1 C-1.34 0.67 -0.68 0.34 0 0 Z " fill="#231313" transform="translate(176,112)"/>
<path d="M0 0 C0.66 0.33 1.32 0.66 2 1 C2.042721 2.66611905 2.04063832 4.33382885 2 6 C1 7 1 7 -2.0625 7.0625 C-3.5165625 7.0315625 -3.5165625 7.0315625 -5 7 C-4.67 6.34 -4.34 5.68 -4 5 C-3.01 5 -2.02 5 -1 5 C-1 3.68 -1 2.36 -1 1 C-0.67 0.67 -0.34 0.34 0 0 Z " fill="#2B1C16" transform="translate(97,120)"/>
<path d="M0 0 C0.66 0.33 1.32 0.66 2 1 C1.34 6.28 0.68 11.56 0 17 C-0.33 17 -0.66 17 -1 17 C-1 13.04 -1 9.08 -1 5 C-1.66 4.67 -2.32 4.34 -3 4 C-2.34 4 -1.68 4 -1 4 C-0.67 2.68 -0.34 1.36 0 0 Z " fill="#ADADAD" transform="translate(132,45)"/>
<path d="M0 0 C0 0.99 0 1.98 0 3 C-2.64 3.33 -5.28 3.66 -8 4 C-7 1 -7 1 -4.5625 -0.25 C-2 -1 -2 -1 0 0 Z " fill="#0C0C0C" transform="translate(213,89)"/>
<path d="M0 0 C0.66 0.33 1.32 0.66 2 1 C1.67 1.99 1.34 2.98 1 4 C-2.0625 5.1875 -2.0625 5.1875 -5 6 C-4.1875 3.5625 -4.1875 3.5625 -3 1 C-2.01 0.67 -1.02 0.34 0 0 Z " fill="#B6B6B6" transform="translate(191,256)"/>
<path d="M0 0 C1.32 0 2.64 0 4 0 C3.67 1.98 3.34 3.96 3 6 C2.01 6.33 1.02 6.66 0 7 C0 4.69 0 2.38 0 0 Z " fill="#D68984" transform="translate(112,183)"/>
<path d="M0 0 C1.32 0 2.64 0 4 0 C4 1.32 4 2.64 4 4 C3.34 4 2.68 4 2 4 C2 4.99 2 5.98 2 7 C1.34 7 0.68 7 0 7 C0 4.69 0 2.38 0 0 Z " fill="#DE9B98" transform="translate(206,183)"/>
<path d="M0 0 C0.66 0 1.32 0 2 0 C2.33 0.66 2.66 1.32 3 2 C5.30965848 3.05352843 7.6429774 4.05719096 10 5 C10 5.33 10 5.66 10 6 C7.36 6 4.72 6 2 6 C0 2.25 0 2.25 0 0 Z " fill="#563720" transform="translate(114,170)"/>
<path d="M0 0 C0.99 0 1.98 0 3 0 C2.34 3.3 1.68 6.6 1 10 C-1.56687367 6.1496895 -0.83288724 4.41430237 0 0 Z " fill="#AEAEAE" transform="translate(265,167)"/>
<path d="M0 0 C0.66 0 1.32 0 2 0 C3.4606285 2.64738916 4 3.89448334 4 7 C2.68 7 1.36 7 0 7 C0 4.69 0 2.38 0 0 Z " fill="#C37B37" transform="translate(115,162)"/>
<path d="M0 0 C1.32 0.66 2.64 1.32 4 2 C4.33 1.34 4.66 0.68 5 0 C5 1.32 5 2.64 5 4 C3.125 5.5625 3.125 5.5625 1 7 C0.34 7.99 -0.32 8.98 -1 10 C-0.67 6.7 -0.34 3.4 0 0 Z " fill="#4A1816" transform="translate(148,163)"/>
<path d="M0 0 C0.33 0 0.66 0 1 0 C0.979375 0.763125 0.95875 1.52625 0.9375 2.3125 C0.87057159 5.10185786 0.87057159 5.10185786 2 8 C0.0625 7.6875 0.0625 7.6875 -2 7 C-2.33 6.01 -2.66 5.02 -3 4 C-1.625 1.8125 -1.625 1.8125 0 0 Z " fill="#968A7D" transform="translate(130,131)"/>
<path d="M0 0 C0.99 0.33 1.98 0.66 3 1 C3 2.65 3 4.3 3 6 C1.35 5.67 -0.3 5.34 -2 5 C-1.125 1.125 -1.125 1.125 0 0 Z " fill="#E6E6E5" transform="translate(113,120)"/>
<path d="M0 0 C2.0625 0.4375 2.0625 0.4375 4 1 C4 2.32 4 3.64 4 5 C2.68 5.33 1.36 5.66 0 6 C-0.38218767 4.34385343 -0.71395102 2.67542976 -1 1 C-0.67 0.67 -0.34 0.34 0 0 Z " fill="#E7E8E6" transform="translate(93,120)"/>
<path d="M0 0 C0.66 0.33 1.32 0.66 2 1 C0.38405168 3.04119788 -1.2856382 5.04072937 -3 7 C-3.66 7 -4.32 7 -5 7 C-5.33 7.99 -5.66 8.98 -6 10 C-6.66 10 -7.32 10 -8 10 C-6.34908222 5.70761377 -3.26245434 3.1206085 0 0 Z " fill="#E0D8C9" transform="translate(113,77)"/>
<path d="M0 0 C2.31 0.66 4.62 1.32 7 2 C6.67 3.32 6.34 4.64 6 6 C6 5.01 6 4.02 6 3 C3.36 3.33 0.72 3.66 -2 4 C-1.34 2.68 -0.68 1.36 0 0 Z " fill="#737373" transform="translate(157,40)"/>
<path d="M0 0 C0.66 0.33 1.32 0.66 2 1 C-1.3 3.64 -4.6 6.28 -8 9 C-8 8.01 -8 7.02 -8 6 C-6.25 4.39453125 -6.25 4.39453125 -4 2.8125 C-3.2575 2.28269531 -2.515 1.75289062 -1.75 1.20703125 C-1.1725 0.80871094 -0.595 0.41039063 0 0 Z " fill="#131313" transform="translate(61,28)"/>
<path d="M0 0 C1.32 0.33 2.64 0.66 4 1 C3.34 1 2.68 1 2 1 C2.66 2.98 3.32 4.96 4 7 C2.68 7 1.36 7 0 7 C0 4.69 0 2.38 0 0 Z " fill="#D79390" transform="translate(83,183)"/>
<path d="M0 0 C0.99 0 1.98 0 3 0 C3.6875 2.25 3.6875 2.25 4 5 C2.5625 7.3125 2.5625 7.3125 1 9 C0.67 6.03 0.34 3.06 0 0 Z " fill="#CD5551" transform="translate(145,163)"/>
<path d="M0 0 C0.66 0 1.32 0 2 0 C2.33 2.31 2.66 4.62 3 7 C1.68 7 0.36 7 -1 7 C-0.67 4.69 -0.34 2.38 0 0 Z " fill="#DB8D89" transform="translate(165,183)"/>
<path d="M0 0 C2 2 2 2 2 5 C1.34 5 0.68 5 0 5 C-0.33 5.99 -0.66 6.98 -1 8 C-1.99 8 -2.98 8 -4 8 C-4 7.01 -4 6.02 -4 5 C-2.68 4.67 -1.36 4.34 0 4 C0 2.68 0 1.36 0 0 Z " fill="#CD5B56" transform="translate(90,105)"/>
<path d="M0 0 C0.66 0 1.32 0 2 0 C2.33 2.31 2.66 4.62 3 7 C1.68 7 0.36 7 -1 7 C-0.67 4.69 -0.34 2.38 0 0 Z " fill="#D78B88" transform="translate(194,183)"/>
<path d="M0 0 C0.66 0 1.32 0 2 0 C2.33 2.31 2.66 4.62 3 7 C1.68 7 0.36 7 -1 7 C-0.67 4.69 -0.34 2.38 0 0 Z " fill="#D48B86" transform="translate(136,183)"/>
<path d="M0 0 C0.99 0 1.98 0 3 0 C3 2.31 3 4.62 3 7 C2.01 7 1.02 7 0 7 C0 4.69 0 2.38 0 0 Z " fill="#D18A84" transform="translate(77,183)"/>
<path d="M0 0 C0.99 0 1.98 0 3 0 C3.33 1.65 3.66 3.3 4 5 C3.01 5.33 2.02 5.66 1 6 C0.67 5.34 0.34 4.68 0 4 C-0.66 4 -1.32 4 -2 4 C-2 3.34 -2 2.68 -2 2 C-1.34 2 -0.68 2 0 2 C0 1.34 0 0.68 0 0 Z " fill="#AF6F32" transform="translate(89,131)"/>
<path d="M0 0 C0.99 0 1.98 0 3 0 C3 1.65 3 3.3 3 5 C2.01 4.67 1.02 4.34 0 4 C-0.33 4.99 -0.66 5.98 -1 7 C-1.04254356 5.00045254 -1.04080783 2.99958364 -1 1 C-0.67 0.67 -0.34 0.34 0 0 Z " fill="#080403" transform="translate(133,128)"/>
<path d="M0 0 C-2.17424117 2.50037734 -3.73045798 3.43628586 -7 4 C-6.625 2.0625 -6.625 2.0625 -6 0 C-3.50907189 -1.24546405 -2.58919267 -0.7767578 0 0 Z " fill="#121212" transform="translate(203,93)"/>
<path d="M0 0 C0.99 0 1.98 0 3 0 C2.67 1.98 2.34 3.96 2 6 C1.01 6 0.02 6 -1 6 C-1.33 4.68 -1.66 3.36 -2 2 C-1.34 2 -0.68 2 0 2 C0 1.34 0 0.68 0 0 Z " fill="#181818" transform="translate(188,58)"/>
<path d="M0 0 C1.11375 0.1546875 1.11375 0.1546875 2.25 0.3125 C-0.58430453 3.5667015 -2.43607774 4.8331753 -6.75 5.3125 C-3.42692308 0.38942308 -3.42692308 0.38942308 0 0 Z " fill="#B4B4B4" transform="translate(224.75,235.6875)"/>
<path d="M0 0 C0.99 0 1.98 0 3 0 C2.67 0.66 2.34 1.32 2 2 C2.33 2.33 2.66 2.66 3 3 C3 4.32 3 5.64 3 7 C2.01 7 1.02 7 0 7 C0 4.69 0 2.38 0 0 Z " fill="#D38785" transform="translate(177,183)"/>
<path d="M0 0 C2.31 0 4.62 0 7 0 C7 0.99 7 1.98 7 3 C4.36 2.67 1.72 2.34 -1 2 C-0.67 1.34 -0.34 0.68 0 0 Z " fill="#763A38" transform="translate(179,170)"/>
<path d="M0 0 C2.475 0.495 2.475 0.495 5 1 C4.67 2.98 4.34 4.96 4 7 C1.49962266 4.82575883 0.56371414 3.26954202 0 0 Z " fill="#BA574F" transform="translate(138,145)"/>
<path d="M0 0 C0 1.98 0 3.96 0 6 C-0.66 6 -1.32 6 -2 6 C-2 5.34 -2 4.68 -2 4 C-2.99 3.67 -3.98 3.34 -5 3 C-2.25 0 -2.25 0 0 0 Z " fill="#DB5A54" transform="translate(190,125)"/>
<path d="M0 0 C0.99 0.33 1.98 0.66 3 1 C1.35 2.65 -0.3 4.3 -2 6 C-2.99 5.67 -3.98 5.34 -5 5 C-3.35 3.35 -1.7 1.7 0 0 Z " fill="#2D2D2D" transform="translate(42,44)"/>
<path d="M0 0 C0.33 0.99 0.66 1.98 1 3 C-0.98 3.66 -2.96 4.32 -5 5 C-5 4.01 -5 3.02 -5 2 C-3.35 1.34 -1.7 0.68 0 0 Z " fill="#A4A4A4" transform="translate(88,15)"/>
<path d="M0 0 C0.66 0.33 1.32 0.66 2 1 C0.02 3.31 -1.96 5.62 -4 8 C-4.66 7.67 -5.32 7.34 -6 7 C-4.02 4.69 -2.04 2.38 0 0 Z " fill="#121212" transform="translate(241,214)"/>
<path d="M0 0 C3 2 3 2 3.6875 4.125 C3.790625 4.74375 3.89375 5.3625 4 6 C2.68 5.67 1.36 5.34 0 5 C-0.5625 3.0625 -0.5625 3.0625 -1 1 C-0.67 0.67 -0.34 0.34 0 0 Z " fill="#190B0B" transform="translate(164,115)"/>
<path d="M0 0 C1.65 1.65 3.3 3.3 5 5 C4.01 5.495 4.01 5.495 3 6 C3 7.32 3 8.64 3 10 C2.34 9.67 1.68 9.34 1 9 C0.5859375 6.93359375 0.5859375 6.93359375 0.375 4.4375 C0.30023438 3.61121094 0.22546875 2.78492187 0.1484375 1.93359375 C0.09945312 1.29550781 0.05046875 0.65742187 0 0 Z " fill="#C37D3A" transform="translate(92,104)"/>
<path d="M0 0 C0.66 0.33 1.32 0.66 2 1 C0.02 3.31 -1.96 5.62 -4 8 C-4.66 7.67 -5.32 7.34 -6 7 C-4.02 4.69 -2.04 2.38 0 0 Z " fill="#121212" transform="translate(37,50)"/>
<path d="M0 0 C-2.75924185 1.80411967 -3.88972103 2.0127245 -7.25 1.625 C-8.1575 1.41875 -9.065 1.2125 -10 1 C-6.42181037 -1.33958553 -4.07775191 -0.9267618 0 0 Z " fill="#393939" transform="translate(112,8)"/>
</svg>
